<svg xmlns="http://www.w3.org/2000/svg" viewBox="0 0 520 190" role="img" aria-labelledby="title desc">
  <title id="title">Y Balance Test</title>
  <desc id="desc">YBT logo mark for the Atlas AMS testing battery.</desc>
  <rect width="520" height="190" fill="#ffffff"/>
  <rect x="16" y="20" width="142" height="104" fill="#3e3e3e"/>
  <path d="M103 50c-8 4-13 11-14 20l-12-11c-9-8-23 4-15 14l25 30c5 6 15 5 18-3l20-42c4-10-12-18-22-8z" fill="#ffffff"/>
  <path d="M67 98c-8 0-15 6-15 14 0 9 7 15 15 15 9 0 15-6 15-15 0-8-6-14-15-14zm31-6c-7 0-12 5-12 12s5 12 12 12 12-5 12-12-5-12-12-12z" fill="#ffffff"/>
  <text x="176" y="117" fill="#ef1b2d" font-family="Arial Black, Impact, sans-serif" font-size="116" font-weight="900">YBT</text>
  <text x="18" y="170" fill="#3e3e3e" font-family="Arial, sans-serif" font-size="34" letter-spacing="4">Y BALANCE TEST</text>
</svg>
