<?xml version="1.0" encoding="UTF-8"?><svg id="Capa_1" xmlns="http://www.w3.org/2000/svg" width="7.61cm" height="7.43cm" viewBox="0 0 215.68 210.58"><defs><style>.cls-1{fill:#eeecec;}.cls-2{fill:#fff;}.cls-3{fill:#efeeed;}.cls-4{fill:#aa3a2b;}.cls-5{fill:#cd3825;}.cls-6{fill:#2a2f61;}.cls-7{fill:#2e315d;}</style></defs><path class="cls-2" d="M108.04,209.58c-22.41,0-44.18-6.36-62.97-18.38-18.29-11.71-32.94-28.21-42.37-47.71l-1.36-2.82,22.85-11.03c-5.16-11.67-7.78-24.1-7.78-37.01,0-24.48,9.53-47.49,26.84-64.8C60.55,10.53,83.56,1,108.04,1s47.49,9.53,64.8,26.84c17.31,17.31,26.84,40.32,26.84,64.8,0,13.16-2.72,25.82-8.09,37.68l22.75,11.21-1.39,2.81c-9.52,19.28-24.16,35.58-42.35,47.12-18.69,11.86-40.33,18.13-62.57,18.13Z"/><path class="cls-7" d="M108.04,210.58c-22.6,0-44.56-6.41-63.5-18.54-18.44-11.81-33.22-28.45-42.74-48.12l-1.8-3.72,22.88-11.04c-4.96-11.53-7.48-23.82-7.48-36.52,0-24.74,9.64-48.01,27.13-65.5C60.03,9.64,83.29,0,108.04,0s48.01,9.64,65.5,27.13c17.5,17.5,27.13,40.76,27.13,65.5,0,12.96-2.62,25.47-7.78,37.21l22.79,11.23-1.83,3.71c-9.6,19.45-24.37,35.88-42.71,47.52-18.85,11.96-40.67,18.29-63.1,18.29ZM2.67,141.14l.93,1.92c9.35,19.34,23.88,35.7,42.01,47.31,18.62,11.92,40.21,18.22,62.43,18.22s43.5-6.22,62.03-17.98c18.03-11.44,32.55-27.6,41.99-46.72l.94-1.91-22.72-11.2,.4-.88c5.31-11.73,8-24.26,8-37.27,0-24.21-9.43-46.97-26.55-64.09C155.01,11.43,132.25,2,108.04,2S61.07,11.43,43.95,28.55c-17.12,17.12-26.55,39.88-26.55,64.09,0,12.75,2.59,25.07,7.69,36.6l.39,.88-22.82,11.01Z"/><g><path class="cls-2" d="M157.7,61.56l19.8-12.28s30.83,41.16-3.93,92.48c-21.34,28.14-68.24,44.88-109.81,19.35-42.3-26.7-44.14-85.01-25.03-111.09,2.5,1.02,21.9,12.56,21.9,12.56l97.06-1Z"/><g><g><path class="cls-6" d="M64.48,42.78l-3.8,3.65,2.13,3.61-2.73,2.62-9.3-17.13,3.23-3.11,16.74,9.98-2.73,2.62-3.54-2.26Zm-5.41,.88l2.71-2.6-6.79-4.35,4.08,6.96Z"/><path class="cls-6" d="M61.47,26.17l10.24-6.21,1.61,2.66-3.58,2.17,8.13,13.41-3.08,1.87-8.13-13.41-3.58,2.17-1.61-2.66Z"/><path class="cls-6" d="M78.56,16.96l3.39-1.13,4.96,14.88,6.47-2.16,.99,2.96-9.86,3.29-5.95-17.83Z"/><path class="cls-6" d="M95.8,12.21l10.34-1.01,.3,3.1-6.79,.67,.46,4.7,4.86-.48,.3,3.1-4.86,.48,.46,4.7,7.03-.69,.3,3.1-10.58,1.04-1.84-18.71Zm3.21-1.69l3.05-4.1,4.54-.45-4.31,4.23-3.29,.32Z"/><path class="cls-6" d="M112.98,11.24l11.88,1.5-.39,3.09-4.16-.53-1.97,15.56-3.57-.45,1.97-15.56-4.16-.53,.39-3.09Z"/><path class="cls-6" d="M131.46,14.57l3.41,1.08-5.66,17.92-3.41-1.08,5.66-17.93Z"/><path class="cls-6" d="M144.4,36.91l-1.52,2.87c-.67-.17-1.75-.37-4.12-1.63-3.75-1.98-5.01-4.55-2.65-9.02l2.69-5.11c2.37-4.49,5.13-5.01,9.05-2.94,2.07,1.09,2.85,1.74,3.34,2.25l-1.52,2.87c-.48-.53-1.07-1.08-2.97-2.08-1.83-.96-3.35-1.01-4.72,1.58l-2.69,5.11c-1.15,2.19-.69,3.61,1.35,4.69,1.95,1.03,3.21,1.33,3.75,1.4Z"/><path class="cls-6" d="M153.62,32.17c2.75-3.05,5.82-3.54,9-.68l1.14,1.02c3.13,2.82,2.97,5.93,.19,9.02l-4.13,4.59c-2.8,3.11-5.84,3.6-8.99,.76l-1.16-1.04c-3.15-2.84-3.01-5.93-.21-9.04l4.17-4.63Zm-1.49,7.04c-1.33,1.48-1.65,3.28-.06,4.72l.42,.38c1.6,1.44,3.34,.91,4.67-.57l4.13-4.59c1.35-1.5,1.67-3.26,.08-4.7l-.42-.38c-1.6-1.44-3.34-.95-4.69,.55l-4.13,4.59Z"/></g><path class="cls-3" d="M161.48,87.8c-.01-.14-.02-.28-.03-.41,0-.05-.01-.1-.02-.15,.02,.19,.03,.38,.05,.57"/><path class="cls-3" d="M160.94,83.65c-.02-.11-.04-.21-.06-.32,.03,.19,.07,.39,.1,.58-.01-.09-.03-.17-.04-.26"/><path class="cls-3" d="M161.6,89.25c0-.11-.02-.22-.03-.34,.02,.22,.03,.44,.04,.66,0-.11,0-.22-.02-.32"/><path class="cls-3" d="M161.71,92.93c0-.05,0-.1,0-.15,0,.22,0,.45,0,.67,0-.17,.01-.35,.01-.52"/><path class="cls-3" d="M160.65,82.12c-.02-.12-.04-.24-.07-.36-.01-.05-.03-.11-.04-.16,.04,.17,.07,.35,.11,.52"/><path class="cls-3" d="M161.55,96.8c0-.08,.02-.15,.02-.23,.01-.18,.02-.36,.03-.55-.02,.26-.03,.52-.05,.77"/><path class="cls-3" d="M155.77,117.21c-.32,.62-.65,1.23-.99,1.84,.34-.6,.67-1.22,.99-1.84"/><path class="cls-3" d="M154.57,119.41c-.36,.62-.72,1.23-1.1,1.82,.38-.59,.74-1.2,1.1-1.82"/><path class="cls-3" d="M141.36,120.99c.16-.16,.3-.35,.39-.58-.04,.1-.09,.2-.15,.29-.07,.11-.15,.2-.24,.29"/><path class="cls-3" d="M141.31,121.05c-.09,.08-.19,.16-.3,.23,.11-.06,.21-.14,.3-.23"/><path class="cls-3" d="M159.59,107.59c-.34,1.19-.72,2.36-1.14,3.5,.42-1.15,.8-2.31,1.14-3.5"/><path class="cls-3" d="M157.93,112.44c-.47,1.18-.97,2.34-1.51,3.47,.54-1.13,1.05-2.28,1.51-3.47"/><path class="cls-3" d="M150.33,59.72c-.05-.07-.1-.14-.15-.2-.08-.11-.17-.21-.26-.31,.14,.17,.28,.34,.41,.52"/><path class="cls-3" d="M152.76,63.1c-.05-.07-.09-.14-.13-.21-.06-.09-.13-.18-.19-.27,.11,.16,.22,.32,.32,.48"/><path class="cls-3" d="M147.47,56.36c-.11-.12-.23-.24-.34-.36,.17,.18,.35,.37,.52,.55-.06-.06-.11-.13-.17-.2"/><path class="cls-3" d="M143.42,52.42c-.14-.12-.27-.24-.41-.36-.08-.07-.17-.14-.25-.2,.22,.19,.44,.38,.65,.57"/><path class="cls-3" d="M122.26,41.01c.66,.18,1.32,.38,1.97,.59-.65-.21-1.31-.4-1.97-.59"/><path class="cls-3" d="M139.78,49.49c-.54-.4-1.1-.79-1.66-1.16,1.16,.79,2.3,1.62,3.4,2.5-.57-.46-1.15-.9-1.74-1.34"/><path class="cls-3" d="M128.67,43.22c1.31,.54,2.59,1.14,3.84,1.78-1.26-.64-2.54-1.24-3.84-1.78"/><path class="cls-3" d="M128.49,43.15c-1.27-.52-2.56-1-3.88-1.43,.65,.21,1.29,.43,1.93,.66,.66,.24,1.3,.5,1.95,.76"/><path class="cls-3" d="M117.85,39.99c.66,.12,1.32,.26,1.98,.41-.66-.15-1.31-.29-1.98-.41"/><path class="cls-3" d="M120.31,40.52c.65,.15,1.29,.31,1.93,.49-.64-.17-1.28-.33-1.93-.49"/><path class="cls-3" d="M132.52,45c1.92,.99,3.78,2.09,5.57,3.3-1.79-1.21-3.65-2.31-5.57-3.3"/><path class="cls-3" d="M159.7,78.22c-.02-.07-.04-.14-.06-.22-.03-.11-.07-.21-.1-.32,.05,.18,.11,.36,.16,.54"/><path class="cls-5" d="M141.6,116.61h-1.09c-.49,0-.98,0-1.47,0-.47,0-.94-.03-1.39,.03-.09,.82-.06,4.52,.05,4.87,.81,0,1.64,0,2.46,0,.13,0,.27-.02,.39-.05,.02,0,.04,0,.06-.01,.12-.03,.24-.08,.35-.14l.04-.02c.11-.06,.21-.14,.3-.23,.02-.02,.04-.04,.05-.05,.09-.09,.17-.18,.24-.29v-4.09Z"/><path class="cls-4" d="M78.46,116.61h-4.3s-.03-.08-.04-.11c.01,.03,.03,.06,.04,.11h4.3Z"/><path class="cls-4" d="M80.08,99.25c.12,.18,.21,.36,.21,.59,0-.23-.09-.41-.21-.59"/><path class="cls-4" d="M103.16,74.12c-.26,0-.51-.02-.74-.03,.23,0,.47,.02,.74,.03"/><path class="cls-5" d="M78.46,116.61h-4.3s-.03-.08-.04-.11c-.01-.03-.02-.05-.02-.07,0-2.97,0-5.93,0-8.9,0-.18,.01-.37,.02-.55,0-.01,.02-.02,.03-.03,.01-.01,.02-.02,.06-.06h3c.52,0,1.04,0,1.56,0,.5,0,1,.03,1.49-.02,.01-.13,.03-.21,.03-.28,0-2.25,0-4.5,0-6.74,0-.23-.09-.41-.21-.59-1-1.52-2-3.04-2.99-4.56-.09-.14-.17-.28-.28-.45,.18-.09,.32-.17,.47-.24,1.26-.62,2.53-1.22,3.78-1.86,1.48-.76,2.94-1.58,4.37-2.43,.72-.43,1.42-.86,2.13-1.31,.7-.45,1.4-.9,2.1-1.36,.74-.5,1.47-1,2.2-1.53,.72-.52,1.43-1.06,2.13-1.61,1.39-1.11,2.74-2.28,4.02-3.52,1.81-1.76,3.49-3.65,4.86-5.78,.04-.07,.09-.14,.13-.21,.05-.08,.1-.16,.16-.26-.26,0-.51-.02-.74-.03-.23,0-.45-.02-.67-.02-.09-.61-.07-6.85,.03-7.24h1.06c0-.83,.09-1.6-.04-2.37-.66-3.91,2.61-6.68,5.86-6.29,.19,.02,.37,.05,.55,.09,.04,0,.08,.02,.13,.03,.14,.03,.27,.07,.41,.11,.04,.01,.07,.03,.11,.04,.14,.05,.27,.1,.4,.16,.03,.01,.05,.03,.07,.04,.12,.06,.25,.12,.37,.18,.02,0,.03,.02,.04,.03l.03,.02h.01c.07,.05,.13,.09,.2,.14,.07,.05,.15,.09,.22,.14h0c.12,.09,.23,.18,.34,.27,.07,.06,.14,.13,.21,.2,.03,.03,.06,.06,.09,.08,.04,.04,.08,.07,.12,.11,.13,.14,.25,.29,.37,.44v-20.99h-.01c-.77-.06-1.54-.1-2.31-.13-.29-.01-.59-.02-.89-.03-.26,0-.52,0-.78-.01-.6,0-1.21,0-1.82,.02-23.59,.68-43.29,16.55-49.8,38.03-3.3,10.89-3.12,21.77,.45,32.57,2.16,6.53,5.52,12.39,9.96,17.63,.03-.01,.06-.03,.09-.04-.35-1.9-.7-3.81-1.07-5.79h2.35c.31,0,.58-.06,.82-.17,.16-.07,.3-.17,.43-.3,.13-.12,.24-.27,.33-.44,.05-.09,.09-.18,.13-.27,.13-.34,.27-.68,.4-1h3.3c.16,.4,.31,.78,.46,1.16,.23,.57,.89,1.02,1.49,1.02,.64,0,1.28,0,1.93,0h.66v-4.9Z"/><path class="cls-4" d="M159.54,77.68h0c-.12-.41-.25-.82-.38-1.23h0c.13,.41,.26,.82,.38,1.23"/><path class="cls-4" d="M158.41,74.23c.09,.24,.17,.48,.25,.71-.08-.24-.16-.48-.25-.71-.22-.61-.46-1.21-.71-1.81h0c.24,.6,.48,1.2,.71,1.81"/><path class="cls-4" d="M160.54,81.6h0c-.12-.56-.25-1.12-.38-1.68h0c.14,.56,.27,1.12,.38,1.68"/><path class="cls-4" d="M157.47,71.88h0c-.18-.43-.37-.86-.56-1.28h0c.19,.42,.38,.85,.56,1.28"/><path class="cls-4" d="M156.66,70.05h0c-.25-.54-.51-1.07-.78-1.6h0c.27,.53,.53,1.06,.78,1.6"/><path class="cls-4" d="M161.1,84.69c-.04-.26-.08-.52-.12-.78,.04,.26,.08,.52,.12,.78"/><path class="cls-4" d="M161.43,87.23h0c-.06-.54-.12-1.08-.19-1.62,.07,.54,.14,1.08,.19,1.62"/><path class="cls-4" d="M161.66,90.64c-.01-.36-.03-.71-.05-1.07,.02,.36,.04,.71,.05,1.07Z"/><path class="cls-5" d="M155.82,117.1c.19-.36,.37-.73,.55-1.09,.02-.03,.03-.07,.05-.1,.54-1.13,1.05-2.29,1.51-3.47v-.02c.15-.37,.29-.74,.43-1.11,.03-.07,.05-.15,.08-.22,.42-1.15,.8-2.31,1.14-3.5,.01-.05,.03-.1,.04-.15,.1-.35,.19-.69,.28-1.04,.04-.14,.07-.28,.11-.41,.09-.34,.17-.68,.25-1.02,.03-.12,.06-.25,.08-.37,.15-.65,.28-1.3,.41-1.95,.03-.14,.06-.28,.08-.42,.06-.31,.11-.62,.16-.93,.03-.21,.07-.42,.1-.63,.04-.3,.09-.59,.13-.89,.03-.24,.06-.47,.09-.71,.05-.41,.09-.81,.13-1.22,.03-.34,.07-.69,.09-1.03,.02-.26,.03-.52,.05-.77h0c0-.11,.01-.23,.02-.34,.01-.17,.02-.34,.03-.51,0-.19,.02-.38,.02-.58,0-.06,0-.13,0-.19,0-.16,0-.32,.01-.47,0-.16,0-.32,.01-.47,0-.22,0-.45,0-.67,0-.51,0-1.02-.02-1.53,0-.04,0-.08,0-.12,0-.16-.01-.32-.02-.49-.01-.36-.03-.71-.05-1.07-.01-.22-.03-.44-.04-.66-.03-.37-.06-.74-.09-1.11-.02-.19-.03-.38-.05-.57-.06-.54-.12-1.08-.19-1.62,0-.06-.02-.11-.02-.17-.01-.09-.03-.18-.04-.26-.02-.16-.05-.33-.08-.49-.04-.26-.08-.52-.12-.78-.03-.19-.07-.39-.1-.58-.07-.4-.15-.8-.23-1.2-.04-.17-.07-.35-.11-.52-.12-.56-.25-1.12-.38-1.68,0-.03-.01-.05-.02-.08-.01-.05-.03-.11-.04-.16-.12-.49-.25-.98-.39-1.47-.05-.18-.1-.36-.16-.54-.12-.41-.25-.82-.38-1.23-.02-.07-.04-.14-.07-.2-.03-.1-.07-.21-.1-.31-.11-.33-.23-.66-.34-.99-.08-.24-.16-.48-.25-.71-.22-.61-.46-1.21-.71-1.81-.07-.18-.15-.36-.23-.54-.18-.43-.37-.86-.56-1.28-.08-.18-.17-.37-.25-.55-.25-.54-.51-1.07-.78-1.6l-.02-.04s-.03-.06-.04-.09v48.77Z"/><path class="cls-5" d="M126.54,87.08c.24,.16,.48,.33,.73,.49,3,1.96,6.09,3.75,9.29,5.36,.78,.39,1.58,.74,2.36,1.12,.12,.06,.23,.13,.36,.2-.1,.16-.18,.29-.26,.42-1,1.54-2.01,3.07-3.02,4.6-.13,.19-.22,.39-.22,.63,0,2.2,0,4.4,0,6.61,0,.12,.03,.23,.05,.38h3.1c.5,0,1.01,0,1.51,0,.2,0,.4,0,.59,0,.06,0,.12,0,.17,0,.13,0,.25,0,.38,0h0V50.89s-.05-.04-.08-.06c-1.1-.88-2.23-1.71-3.4-2.5l-.04-.02c-1.79-1.21-3.65-2.31-5.57-3.3h0c-1.26-.64-2.54-1.24-3.84-1.78-.06-.03-.12-.05-.18-.07-.64-.27-1.29-.52-1.95-.76v44.69Z"/><polyline class="cls-2" points="113.39 63.56 113.39 63.57 113.39 63.56"/><path class="cls-2" d="M112.32,60.25c.08,.11,.16,.21,.23,.32,.05,.08,.1,.17,.14,.25,.02,.03,.03,.06,.05,.09,.11,.21,.21,.42,.3,.64v.03c.06,.15,.11,.29,.16,.45,0,.03,.01,.06,.02,.08,.03,.12,.06,.25,.09,.38,0,.01,0,.02,0,.04,0,.05,.01,.1,.02,.15,.02,.12,.03,.24,.04,.36v.04c0,.07,0,.15,0,.23,0,.08,0,.17,0,.25h0c0,.19-.02,.37-.04,.55-.1,.8-.08,1.59-.1,2.38,0,.1,.03,.2,.05,.35h1.04c.1,.56,.08,6.89-.03,7.28h-1.38c.35,.53,.64,.98,.95,1.41,.47,.67,.97,1.31,1.49,1.93,.52,.62,1.06,1.22,1.62,1.8,1.12,1.16,2.31,2.26,3.55,3.32,.5,.43,1,.84,1.51,1.25,.31,.24,.62,.48,.93,.72,.19,.15,.38,.3,.58,.44,.43,.32,.86,.63,1.3,.94,.07,.05,.13,.09,.2,.14,.49,.35,1,.68,1.5,1.02V42.38c-.64-.23-1.28-.45-1.93-.66-.13-.04-.26-.08-.39-.12-.65-.21-1.31-.4-1.97-.59h-.02c-.64-.18-1.28-.34-1.93-.49-.16-.04-.33-.08-.49-.11-.66-.15-1.31-.29-1.98-.41-.03,0-.05-.01-.08-.02-.56-.1-1.11-.2-1.67-.28-.07-.01-.13-.02-.2-.03-.55-.08-1.1-.15-1.66-.22-.06,0-.13-.01-.19-.02-.57-.06-1.15-.12-1.72-.17h0v20.99Z"/><path class="cls-2" d="M148.87,127.37c.18-1,.36-1.97,.54-2.93-.18,.96-.35,1.94-.54,2.93"/><path class="cls-2" d="M148.72,57.77h0c-.35-.41-.71-.81-1.08-1.21h0c.36,.4,.72,.8,1.08,1.21"/><path class="cls-2" d="M151.36,61.08h0c-.34-.46-.68-.91-1.03-1.36,.35,.45,.7,.9,1.03,1.36"/><path class="cls-2" d="M149.91,59.2h0c-.25-.32-.51-.63-.77-.94h0c.26,.31,.52,.62,.77,.94"/><path class="cls-2" d="M153.73,64.61h0c-.31-.51-.64-1.01-.97-1.51,.33,.5,.65,1,.97,1.51"/><path class="cls-2" d="M154.69,66.23h0c-.26-.46-.53-.92-.8-1.37h0c.28,.45,.54,.91,.81,1.37"/><path class="cls-2" d="M142.5,51.63c-.3-.25-.59-.5-.89-.74h0c.3,.24,.6,.49,.89,.74"/><path class="cls-2" d="M152.44,62.62h0c-.26-.39-.53-.77-.8-1.15h0c.27,.38,.54,.76,.8,1.15"/><path class="cls-2" d="M155.82,68.33h0c-.28-.55-.57-1.09-.87-1.63h0c.3,.54,.59,1.08,.87,1.63"/><path class="cls-2" d="M141.6,50.89v56h0c.13,0,.25,.02,.38,.03,0,.04,0,.08,0,.14,.01,.21,.02,.52,.03,.9,0,.28,0,.61,.01,.96,0,.12,0,.24,0,.36,0,.37,0,.76,0,1.17,0,.27,0,.55,0,.82,0,.28,0,.56,0,.83,0,.42,0,.83-.01,1.22,0,.26,0,.52-.01,.77,0,.25,0,.48-.01,.7,0,.22,0,.43-.01,.62,0,.09,0,.19,0,.27,0,.17-.01,.32-.02,.45-.01,.26-.03,.42-.04,.47h-.32v4.09c.06-.09,.11-.18,.15-.29,.14-.37,.29-.73,.43-1.09h3.31c.16,.41,.28,.82,.48,1.2,.31,.58,.75,.99,1.47,.99,.7,0,1.41,0,2.11,0,.12,0,.23,.02,.39,.04-.18,.97-.35,1.92-.53,2.89-.18,.96-.35,1.94-.54,2.93,.34-.38,.67-.77,1-1.16,.18-.21,.35-.43,.52-.65,.15-.18,.29-.36,.44-.55,.23-.3,.46-.61,.69-.91,.08-.11,.16-.21,.23-.31,.26-.36,.52-.73,.77-1.1,.04-.05,.08-.11,.11-.16,.28-.41,.55-.82,.81-1.24,.01-.02,.02-.03,.03-.05,.38-.6,.74-1.2,1.1-1.82,.07-.12,.14-.24,.21-.36,.34-.6,.67-1.22,.99-1.84,.02-.03,.03-.07,.05-.1v-48.77h0c-.28-.55-.57-1.09-.87-1.63-.03-.05-.06-.1-.09-.16-.06-.1-.12-.21-.17-.31-.26-.46-.53-.92-.81-1.37-.05-.08-.1-.17-.15-.26-.31-.51-.64-1.01-.97-1.51-.11-.16-.22-.32-.32-.48-.26-.39-.53-.77-.8-1.15-.09-.13-.18-.26-.28-.39-.34-.46-.68-.91-1.03-1.36-.14-.17-.27-.35-.41-.52-.25-.32-.51-.63-.77-.94-.14-.17-.28-.33-.42-.5-.35-.41-.71-.81-1.08-1.21-.17-.19-.34-.37-.52-.55-.24-.26-.48-.51-.73-.76-.18-.19-.36-.37-.55-.56-.37-.36-.74-.72-1.12-1.08-.2-.19-.41-.37-.61-.56-.23-.21-.47-.42-.7-.63-.22-.19-.43-.38-.65-.57h0c-.09-.08-.18-.15-.27-.22-.3-.25-.59-.5-.89-.74h0"/><path class="cls-3" d="M100.03,81.76c-1.2,1.18-2.47,2.3-3.79,3.36-1.38,1.11-2.79,2.17-4.24,3.18,1.45-1.01,2.86-2.06,4.24-3.18,1.32-1.07,2.59-2.18,3.79-3.36"/><path class="cls-3" d="M104.39,76.7c-.31,.44-.64,.88-.98,1.31-.39,.49-.79,.96-1.19,1.43,.41-.47,.81-.94,1.19-1.43,.34-.43,.66-.86,.98-1.31"/><path class="cls-3" d="M108.71,60.44c-.16-.03-.31-.05-.47-.06-.15,0-.3,0-.44,.02,.15-.02,.3-.03,.44-.02,.16,0,.32,.03,.47,.06"/><path class="cls-3" d="M90.63,102.06c-.04,.2-.05,.41-.03,.62-.02-.21,0-.42,.03-.62"/><path class="cls-3" d="M90.6,102.68c0,.11,.02,.21,.05,.32,.07,.34,.22,.67,.43,.94-.21-.28-.36-.6-.43-.94-.02-.11-.04-.21-.05-.32"/><path class="cls-3" d="M133.77,106.77l-.04,.05,.04-.05v-.47c0-1.17,0-2.34,0-3.51,0,1.17,0,2.34,0,3.51v.47Z"/><path class="cls-3" d="M111.12,63.2c-.02-.17-.05-.35-.1-.53-.08-.32-.22-.62-.4-.89,.18,.27,.31,.57,.4,.89,.05,.18,.08,.36,.1,.53"/><path class="cls-3" d="M110.98,66.43v0c-.59-.1-1.15,.03-1.74-.1,.39-.25,.72-.51,1-.79-.27,.28-.6,.54-1,.79,.59,.13,1.15,0,1.74,.1"/><path class="cls-3" d="M110.82,74.64c-.42-.74-.81-1.5-1.14-2.3-.03-.07-.06-.15-.09-.23,.03,.08,.06,.16,.09,.23,.34,.79,.72,1.56,1.14,2.3"/><path class="cls-3" d="M120.45,85.25c-2.64-2.12-5.1-4.44-7.21-7.09-.67-.84-1.29-1.7-1.86-2.6,.57,.9,1.19,1.76,1.86,2.6,2.12,2.66,4.57,4.97,7.21,7.09"/><path class="cls-3" d="M133.64,106.86h.03s.02-.02,.04-.03c-.01,.01-.02,.03-.04,.03h-.03"/><path class="cls-3" d="M110.69,102.25c0-.09-.02-.18-.04-.27-.11-.5-.35-.92-.69-1.24,.34,.32,.58,.75,.69,1.24,.02,.09,.03,.18,.04,.27"/><path class="cls-3" d="M108.22,104.9s.09,0,.17,0c.66-.03,1.23-.31,1.64-.74-.41,.43-.99,.71-1.64,.74-.08,0-.15,0-.17,0"/><path class="cls-3" d="M93.27,104.9s.08,0,.13,0c.28-.01,.54-.08,.78-.17-.24,.1-.5,.16-.78,.17-.05,0-.09,0-.13,0"/><path class="cls-3" d="M95.67,102.25c-.02-.19-.06-.38-.13-.57-.12-.35-.32-.65-.56-.89,.24,.25,.44,.55,.56,.89,.07,.19,.11,.38,.13,.57"/><path class="cls-3" d="M122.01,100.3c-.21,.1-.41,.23-.59,.4-.09,.08-.17,.17-.25,.27,.08-.09,.16-.18,.25-.27,.18-.16,.38-.29,.59-.4"/><path class="cls-3" d="M106.19,104.04c.26,.31,.62,.57,1.05,.72-.44-.15-.79-.41-1.05-.72"/><path class="cls-3" d="M89.5,111.49c0,.15,0,.31,0,.47,0,.27,.01,.53,.02,.75-.01-.22-.02-.48-.02-.75,0-.15,0-.31,0-.47"/><path class="cls-3" d="M95.54,110.31c-.01,.08-.02,.18-.03,.29,0-.11,.02-.21,.03-.29"/><path class="cls-3" d="M95.56,113.11s.01,.06,.02,.08h0s-.01-.05-.02-.08"/><path class="cls-3" d="M77.58,110.31c-.02,.15-.04,.39-.05,.66,.01-.27,.03-.51,.05-.66"/><path class="cls-3" d="M76.42,109.18h-.01s-.02,.03-.05,.06c.03-.03,.04-.04,.05-.05h.01"/><path class="cls-3" d="M139.57,109.14s.09,.03,.16,.05c-.07-.02-.12-.05-.16-.05-20.9,0-41.81,0-62.71,0-.13,0-.26,.01-.38,.03,.13-.01,.26-.03,.38-.03,20.9,0,41.81,0,62.71,0"/><polygon class="cls-3" points="137.41 110.33 137.41 110.33 137.41 113.19 138.53 113.19 137.41 113.19 137.41 110.33"/><path class="cls-3" d="M119.43,112.12c0,.36,0,.71,.03,1.07h0c-.02-.36-.03-.71-.03-1.07"/><path class="cls-3" d="M113.51,110.28c-.02,.12-.04,.28-.05,.47,.01-.19,.03-.36,.05-.47"/><path class="cls-3" d="M107.45,111.76c0,.48,0,.96,.02,1.44h0c-.01-.48-.02-.96-.02-1.44"/><path class="cls-3" d="M113.54,113.19h0c-.04-.11-.07-.39-.08-.74,.02,.35,.05,.64,.08,.74"/><path class="cls-3" d="M101.52,110.31c-.03,.21-.05,.56-.06,.94,0-.38,.02-.73,.06-.94"/><path class="cls-3" d="M89.59,110.3c-.05,.15-.08,.64-.09,1.18,0-.54,.04-1.03,.09-1.18"/><path class="cls-3" d="M145.06,130.84c.02-.1,.06-.19,.12-.27-.07,.08-.1,.17-.12,.27"/><path class="cls-3" d="M145.09,134.16h0c-.02-.17-.04-.29-.04-.4,0,.12,.02,.23,.04,.4"/><path class="cls-3" d="M147.31,136.97c-.17,.15-.33,.29-.58,.5,.25-.21,.42-.36,.58-.5"/><path class="cls-3" d="M135.35,133.66c0,.08,0,.16,.01,.23,0-.08-.01-.15-.01-.23"/><path class="cls-3" d="M140.48,123.78s-.05,.03-.11,.06c.06-.03,.09-.05,.11-.06"/><path class="cls-3" d="M108.91,131.78s.07-.08,.11-.11c.13-.12,.26-.24,.39-.35-.13,.11-.26,.23-.39,.35-.04,.03-.07,.07-.11,.11"/><path class="cls-3" d="M105.83,128.03c-.1-.49-.2-.98-.28-1.47,.08,.49,.19,.98,.28,1.47"/><path class="cls-3" d="M146.3,123.67c.23,.09,.46,.14,.73,.1,.05,0,.11,.03,.18,.05-.07-.02-.13-.06-.18-.05-.27,.04-.51-.01-.73-.1"/><path class="cls-3" d="M107.35,131.98s.01,.1,.01,.15c0-.05,0-.11-.01-.15"/><path class="cls-3" d="M107.34,134.82c0,.05-.02,.11-.03,.18,0-.07,.02-.13,.03-.18"/><path class="cls-3" d="M106.24,130.89c-.13-.1-.2-.22-.18-.39-.01,.17,.06,.29,.18,.39,.3,.24,.58,.5,.88,.74,.04,.03,.08,.07,.11,.11-.03-.04-.07-.07-.11-.11-.3-.23-.58-.49-.88-.74"/><path class="cls-3" d="M107.91,123.74c-.05,.05-.11,.1-.16,.15-.11,.11-.21,.21-.32,.32,.11-.11,.21-.21,.32-.32,.05-.05,.11-.1,.16-.15"/><path class="cls-3" d="M109.83,130.99c-.14,.1-.28,.21-.41,.33,.13-.11,.27-.22,.41-.33,.22-.16,.3-.36,.28-.63,.02,.27-.06,.46-.28,.63"/><path class="cls-3" d="M78.18,143.68c.44,.26,.88,.51,1.32,.76-.44-.25-.88-.5-1.32-.76"/><path class="cls-3" d="M72.14,121.67s-.07,.08-.09,.12c-.07,.11-.14,.22-.22,.33,.08-.1,.15-.21,.22-.33,.03-.04,.06-.08,.09-.12"/><path class="cls-3" d="M73.63,134.12c-.05-.1-.08-.21-.07-.35,0,.14,.02,.25,.07,.35"/><path class="cls-3" d="M73.74,130.53s.06-.06,.1-.09c.25-.19,.49-.41,.73-.61-.24,.21-.48,.42-.73,.61-.04,.03-.07,.06-.1,.09"/><path class="cls-3" d="M73.65,130.64s.05-.07,.08-.1c-.03,.03-.05,.07-.08,.1"/><path class="cls-3" d="M75.74,123.81c-.05,0-.1-.02-.14-.03,.04,0,.09,.02,.14,.03"/><path class="cls-3" d="M147.05,124.79c-.24,1.47-.68,2.92-.58,4.44,0,.05,0,.09-.01,.13,.01-.04,.01-.08,.01-.13-.1-1.52,.33-2.97,.58-4.44"/><path class="cls-3" d="M72.26,121.53h0s.07,.05,.1,.07c-.02-.02-.06-.04-.1-.07"/><path class="cls-3" d="M135.46,134.32c.03,.07,.06,.14,.1,.21,.3,.53,.56,1.08,.86,1.62-.29-.54-.56-1.09-.86-1.62-.04-.07-.07-.14-.1-.21"/><path class="cls-3" d="M80.73,133.6h0c0,.24-.03,.46-.1,.67,.07-.21,.1-.43,.1-.67"/><path class="cls-3" d="M80.73,117.22c0-.19,0-.39,.01-.57,.04,0,.19,0,.45-.01-.26,0-.41,0-.45,.01,0,.18-.01,.38-.01,.57"/><path class="cls-3" d="M81.65,116.63c-.18,0-.34,0-.46,0,.13,0,.28,0,.46,0"/><path class="cls-3" d="M90.54,116.6c-1,0-1.94,0-2.82,0,.88,0,1.82,0,2.82,0"/><path class="cls-3" d="M142.55,133.81c-.01-.95-.01-1.9,0-2.84,0-.05,0-.1-.01-.14,0,.04,.01,.09,.01,.14,0,.95-.01,1.9,0,2.84"/><path class="cls-3" d="M71.17,122.79c-.44,.37-.94,.66-1.47,.92-.08,.04-.17,.06-.27,.07,.1,0,.19-.03,.27-.07,.53-.26,1.03-.55,1.47-.92"/><path class="cls-3" d="M71.03,134.04s-.03,.06-.04,.1h0s.03-.08,.04-.1"/><path class="cls-3" d="M136.6,136.73c0,.07,.01,.14,.01,.21,0-.07,0-.14-.01-.21"/><path class="cls-3" d="M138.89,143.23c-.67,.37-1.32,.76-1.99,1.15-.04,.02-.08,.04-.12,.06,.05-.02,.09-.04,.12-.06,.66-.38,1.32-.78,1.99-1.15,.1-.06,.18-.12,.24-.2-.06,.07-.13,.14-.24,.2"/><path class="cls-3" d="M76.83,137.1c0-.37-.1-.62-.41-.84-.86-.61-1.69-1.26-2.54-1.89-.11-.08-.19-.16-.24-.26,.05,.1,.13,.18,.24,.26,.85,.62,1.68,1.27,2.54,1.88,.31,.22,.42,.46,.41,.84-.02,1.8,0,3.61-.02,5.41,0,.15,.02,.28,.07,.38-.05-.11-.07-.23-.07-.38,.02-1.8,0-3.61,.02-5.41"/><path class="cls-3" d="M76.88,142.89c.06,.14,.17,.25,.34,.35,.66,.36,1.3,.75,1.95,1.12,.09,.05,.18,.08,.33,.14v-.06c-.44-.25-.88-.5-1.32-.76-.44-.26-.87-.52-1.3-.79"/><path class="cls-1" d="M82.48,98.48c.09,.14,.16,.28,.21,.42,.04,.15,.07,.3,.07,.47-.01,2.31,0,4.62,0,6.93v.52c.11,.03,.15,.06,.19,.06,16.8,0,33.61,0,50.41,0,.1,0,.2-.01,.29-.02h.03s.02-.02,.04-.03l.02-.02,.04-.05v-.47c0-1.17,0-2.34,0-3.51,0-1.17,0-2.34,0-3.51,0-.26,.06-.47,.2-.68,.68-1.02,1.35-2.04,2.02-3.07,.07-.11,.13-.23,.21-.36-.15-.08-.29-.15-.42-.22-.04-.02-.09-.05-.13-.07-1.01-.51-2.01-1.03-3-1.57-.99-.54-1.97-1.1-2.93-1.67-3.22-1.92-6.32-4.04-9.25-6.4-2.64-2.12-5.1-4.44-7.21-7.09-.67-.84-1.29-1.7-1.86-2.6-.19-.3-.37-.6-.55-.91-.42-.74-.81-1.5-1.14-2.3-.03-.07-.06-.15-.09-.23-.03-.08-.06-.18-.1-.29h2.6v-2.73h-1.11v-2.66c-.59-.1-1.15,.03-1.74-.1,.39-.25,.72-.51,1-.79,.4-.42,.67-.86,.8-1.34,.09-.32,.11-.65,.08-1-.02-.17-.05-.35-.1-.53-.08-.32-.22-.62-.4-.89-.27-.41-.62-.74-1.03-.99-.14-.08-.28-.15-.43-.21-.15-.06-.3-.11-.45-.14-.16-.03-.31-.05-.47-.06-.15,0-.3,0-.44,.02-.15,.02-.29,.06-.44,.1-.87,.28-1.64,.99-1.97,1.89-.06,.16-.1,.32-.14,.48-.05,.24-.07,.48-.05,.73,.01,.24,.05,.49,.13,.73,.12,.4,.3,.74,.54,1.05,.24,.3,.53,.57,.86,.8,.1,.07,.19,.13,.3,.2-.55,0-1.1,.02-1.7,.03v2.71h-1.09v2.7h2.84c-.06,.14-.1,.26-.14,.36-.02,.05-.04,.1-.06,.15-.02,.05-.04,.09-.06,.14-.22,.5-.45,.99-.7,1.47-.5,.96-1.08,1.88-1.7,2.76-.31,.44-.64,.88-.98,1.31-.39,.49-.79,.96-1.19,1.43-.7,.81-1.44,1.59-2.2,2.33-1.2,1.18-2.47,2.3-3.79,3.36-1.38,1.11-2.8,2.17-4.24,3.18-1.06,.74-2.13,1.46-3.22,2.15-2.58,1.63-5.25,3.12-7.99,4.49-.15,.07-.29,.15-.45,.24,.11,.18,.2,.32,.29,.46,.62,.95,1.23,1.9,1.86,2.84m38.32,3.1c.04-.11,.1-.22,.16-.32,.06-.1,.13-.2,.2-.3,.08-.09,.16-.18,.25-.27,.18-.16,.38-.29,.59-.4,.21-.1,.44-.17,.68-.22,.16-.03,.32-.04,.47-.04,.48,0,.96,.11,1.36,.35,.14,.08,.27,.17,.38,.28,.12,.11,.22,.22,.32,.34,.28,.37,.45,.8,.49,1.26,.01,.12,.01,.24,0,.36,0,.12-.02,.24-.05,.36-.03,.12-.06,.24-.11,.36-.18,.48-.56,.99-1.15,1.29-.23,.12-.5,.21-.8,.25-.15,.02-.31,.03-.47,.02-.16,0-.31,0-.46-.03-1.01-.15-1.66-.87-1.9-1.54-.09-.23-.13-.47-.15-.71-.02-.36,.04-.72,.17-1.05m-15-.04c.12-.3,.31-.57,.54-.79,.35-.34,.8-.58,1.33-.66,.36-.06,.7-.05,1.02,0,.48,.09,.91,.32,1.25,.64,.34,.32,.58,.75,.69,1.24,.02,.09,.03,.18,.04,.27,0,.09,.01,.18,.01,.27,0,.18-.02,.35-.06,.52-.06,.25-.16,.49-.29,.71-.09,.15-.19,.28-.31,.4-.41,.43-.99,.71-1.64,.74-.08,0-.15,0-.17,0-.36,.02-.69-.03-.98-.13-.44-.15-.79-.41-1.05-.72-.24-.29-.41-.62-.49-.95,0-.03-.02-.06-.02-.08-.04-.17-.06-.35-.06-.52,0-.34,.06-.66,.19-.96m-15.17,.52c.02-.1,.04-.2,.07-.3,.04-.13,.09-.25,.15-.37,.18-.36,.45-.68,.8-.91,.11-.08,.24-.15,.37-.21,.17-.08,.35-.14,.53-.18,.36-.08,.72-.08,1.07-.02,.52,.1,1,.34,1.37,.71,.24,.25,.44,.55,.56,.89,.07,.19,.11,.38,.13,.57,.03,.29,0,.57-.07,.83-.05,.18-.11,.35-.2,.51-.07,.13-.15,.25-.23,.36-.05,.07-.1,.13-.16,.19-.06,.06-.12,.13-.19,.18-.19,.16-.41,.3-.65,.4-.24,.1-.5,.16-.78,.17-.05,0-.09,0-.13,0-.04,0-.06,0-.07,0-.16,0-.32,0-.48-.02-.31-.04-.59-.13-.84-.26-.32-.17-.59-.4-.8-.68-.21-.28-.36-.6-.43-.94-.02-.11-.04-.21-.05-.32-.02-.21,0-.42,.03-.62"/><path class="cls-1" d="M139.73,109.19c-.07-.02-.12-.05-.16-.05-20.9,0-41.81,0-62.71,0-.13,0-.26,.01-.38,.03h-.02s-.02,.01-.02,.02h-.01s-.02,.03-.05,.06v5.09h63.37v-5.13Zm-61.05,4h-1.07c-.03-.1-.06-.36-.07-.68,0-.13-.01-.27-.01-.42,0-.15,0-.3,0-.45,0-.15,0-.3,0-.45,0-.07,0-.14,0-.21,0-.27,.03-.51,.05-.66h1.1v2.88Zm6.01,0h-1.14v-2.89h1.12c.02,.24,.03,.48,.03,.71,0,.24,0,.48,0,.72,0,.48-.01,.96-.02,1.46m5.97-.02h-1.08c-.03-.08-.05-.25-.06-.47-.01-.22-.02-.48-.03-.75,0-.15,0-.31,0-.47h0c0-.55,.04-1.04,.09-1.19h1.07v2.88Zm5.98,.01h-1.06s-.01-.05-.02-.08c0-.03-.01-.07-.02-.11-.02-.13-.03-.3-.04-.49,0-.19-.02-.41-.02-.64,0-.45,0-.92,.03-1.27,0-.11,.02-.21,.03-.29h1.1v2.88Zm5.98,0h-1.06c-.03-.08-.05-.26-.06-.49-.02-.23-.02-.53-.03-.83,0-.08,0-.15,0-.23,0-.13,0-.26,0-.39,0-.38,.03-.73,.06-.94h1.1v2.88Zm5.99-2.88v2.89h-1.14c-.01-.48-.02-.96-.02-1.44,0-.48,0-.96,.01-1.45h1.15Zm6,2.88h-1.06c-.04-.11-.07-.39-.08-.74,0-.12-.01-.24-.01-.37,0-.22,0-.46,0-.68,0-.23,0-.45,.02-.64,.01-.19,.03-.36,.05-.47h1.09v2.91Zm5.99,0h-1.13c-.02-.36-.03-.71-.03-1.07,0-.36,0-.72,0-1.08,0-.24,0-.48,0-.73h1.15v2.88Zm5.98,0h-1.13v-2.88h1.13v2.88Zm5.98,0h-1.13v-2.87h1.13v2.87Zm5.99,0h-1.13v-2.86h0c.09-.02,.18-.04,.27-.05,.09,0,.18-.01,.27-.01h0c.1,0,.19,0,.29,.01,.1,0,.2,.01,.3,.02v2.88Z"/><path class="cls-1" d="M165.29,58.08l-6.85,4.06c5.5,8.96,8.68,19.51,8.68,30.79,0,12.15-3.68,23.44-9.98,32.82-.19,.28-.38,.55-.57,.83-.1,.15-.2,.29-.3,.44-2,2.79-2.65,4.01-5.72,6.97-.86,.83-1.91,1.8-3.24,2.98-.16,.15-.33,.29-.58,.5v-3.32h-1.64c-.02-.17-.04-.29-.04-.4,0-.92,0-1.84,0-2.75,0-.06,0-.11,.01-.16,.02-.1,.06-.19,.12-.27,.03-.04,.07-.08,.12-.11,.24-.19,.46-.38,.69-.58,.08-.07,.17-.15,.25-.22,.07-.06,.13-.11,.17-.18,.02-.03,.04-.07,.05-.11,.01-.04,.01-.08,.01-.13-.1-1.52,.33-2.97,.58-4.44,.05-.32,.11-.63,.16-.96-.07-.02-.13-.06-.18-.05-.27,.04-.51-.01-.73-.1-.08-.03-.15-.07-.22-.11-.1-.05-.19-.11-.29-.17-.76-.47-1.45-1.01-1.9-1.88-.11,.09-.2,.14-.24,.22-.34,.58-.8,1.01-1.32,1.37-.15,.1-.3,.2-.46,.29-.17,.1-.35,.2-.53,.3-.06,.03-.12,.05-.19,.06-.07,0-.14,.01-.21,.02-.15,.01-.31,0-.46,.02-.03,0-.05,.03-.11,.06,.09,.53,.19,1.07,.29,1.6,.07,.36,.14,.72,.21,1.08,.07,.36,.14,.72,.19,1.08,.06,.45,.06,.91,.05,1.37,0,.08,0,.16,.01,.24,.02,.15,.07,.27,.17,.38,.05,.06,.11,.11,.18,.16,.31,.22,.58,.49,.88,.73,.08,.06,.13,.13,.17,.21,.02,.04,.03,.08,.04,.12,0,.04,.01,.09,.01,.14,0,.95-.01,1.9,0,2.84,0,.06,0,.12-.01,.17-.02,.07-.05,.13-.09,.19-.04,.06-.1,.12-.17,.18-.19,.14-.38,.28-.57,.43-.7,.52-1.4,1.05-2.11,1.57-.12,.09-.2,.17-.25,.28-.05,.1-.07,.22-.07,.37,.01,1.85,0,3.7,.01,5.55,0,.21-.05,.37-.15,.5-.06,.07-.13,.14-.24,.2-.67,.37-1.32,.76-1.99,1.15-.04,.02-.08,.04-.12,.06-.05,.02-.1,.04-.17,.07v-.54c0-2.34,0-4.68,0-7.02,0-.07,0-.14-.01-.21,0-.07-.02-.13-.03-.2-.03-.13-.08-.26-.15-.38-.29-.54-.56-1.09-.86-1.62-.04-.07-.07-.14-.1-.21-.03-.07-.05-.14-.07-.21-.02-.07-.03-.15-.04-.22,0-.08-.01-.15-.01-.23,0-5.46,0-10.92,0-16.38v-.58c-.14-.04-9.05-.07-19.63-.09-.81,0-1.64,0-2.47,0-.83,0-1.67,0-2.51,0-.84,0-1.68,0-2.53,0-2.11,0-4.22,0-6.29,0h-2.45c-.81,0-1.6,0-2.38,0-1.17,0-2.31,0-3.41,0-.73,0-1.44,0-2.13,0-.34,0-.68,0-1.02,0-1,0-1.94,0-2.82,0-1.17,0-2.23,0-3.15,0-.92,0-1.69,0-2.3,.01-.23,0-.43,0-.61,0-.18,0-.33,0-.46,0-.26,0-.41,0-.45,.01,0,.18-.01,.38-.01,.57,0,5.46,0,10.92,0,16.38,0,.24-.03,.46-.1,.67-.04,.13-.09,.25-.16,.38-.27,.48-.51,.98-.77,1.46-.07,.13-.12,.26-.16,.4-.03,.14-.05,.28-.05,.43,0,2.34,0,4.68,0,7.02v.55c-.15-.06-.24-.09-.33-.14-.65-.37-1.29-.76-1.95-1.12-.17-.09-.28-.21-.34-.35-.05-.11-.07-.23-.07-.38,.02-1.8,0-3.61,.02-5.41,0-.37-.1-.62-.41-.84-.86-.61-1.69-1.26-2.54-1.88-.11-.08-.19-.16-.24-.26-.05-.1-.08-.21-.07-.35,.02-.92,.01-1.84,0-2.75,0-.15,.03-.27,.09-.38,.02-.04,.05-.07,.08-.11h0s.06-.07,.1-.1c.25-.19,.49-.41,.73-.61,.07-.06,.14-.12,.22-.18,.06-.05,.1-.1,.14-.16,.05-.08,.07-.17,.07-.27-.06-.92,.08-1.81,.25-2.7,.07-.36,.14-.71,.21-1.07,.03-.18,.07-.36,.1-.53,.05-.33,.11-.66,.17-1.01v-.08s-.09-.02-.13-.03c-.04,0-.08-.01-.11,0-.25,.04-.47,0-.68-.07-.21-.08-.41-.19-.6-.32-.36-.23-.7-.47-1.01-.74-.31-.28-.58-.6-.78-.99,0-.02-.03-.03-.05-.05-.02-.02-.06-.04-.1-.07v.02s-.09,.08-.12,.12c-.03,.04-.07,.08-.09,.12-.07,.11-.14,.22-.22,.33-.08,.1-.16,.2-.25,.3h0c-.13,.14-.26,.26-.4,.38-.44,.37-.94,.66-1.47,.92-.08,.04-.17,.06-.27,.07-.1,0-.21,0-.32,.01-.07,0-.15,0-.23,.01,.04,.24,.07,.48,.12,.71,.17,.92,.37,1.83,.5,2.75,.04,.29,.07,.57,.09,.86s.02,.58,.02,.87c0,.34,.1,.57,.37,.77,.31,.23,.6,.48,.87,.74,.05,.05,.1,.11,.13,.18,.04,.07,.06,.14,.06,.2,0,.51,0,1.02,0,1.54,0,.51,0,1.02,0,1.54,0,.02,0,.04-.02,.07-.01,.03-.03,.06-.04,.1h-1.62v3.17c-12.35-10.81-20.15-26.68-20.15-44.38,0-11.47,3.28-22.17,8.94-31.22l-6.6-3.91c-6.26,10.15-9.87,22.11-9.87,34.92,0,34.53,26.26,62.93,59.91,66.31v-8.59c0-.14-.03-.27-.03-.41,0-4.17,0-8.35,0-12.52,0-.15,.02-.27,.08-.37,.03-.05,.06-.1,.1-.14,.04-.04,.09-.09,.15-.13,.75-.53,1.48-1.09,2.21-1.64,.22-.17,.43-.25,.71-.24,.34,0,.67,.01,1.01,0,.34,0,.67,0,1.01,0h.47c0-.07,.02-.13,.03-.18,0-.05,.02-.1,.02-.16,0-.84,0-1.68,0-2.52,0-.05,0-.11-.01-.15-.02-.09-.05-.18-.12-.25-.03-.04-.07-.07-.11-.11-.3-.23-.58-.49-.88-.74-.13-.1-.2-.22-.18-.39,.02-.34,.02-.67,0-1-.04-.5-.13-.99-.22-1.47-.1-.49-.2-.98-.28-1.47-.05-.3-.1-.59-.15-.87,.06-.04,.09-.07,.11-.06,.21,.03,.39-.01,.55-.09,.16-.08,.3-.21,.43-.36,.3-.33,.62-.65,.94-.96,.11-.11,.21-.21,.32-.32,.05-.05,.11-.1,.16-.15,.06-.05,.11-.11,.17-.16,.23,.23,.46,.46,.69,.68,.22,.22,.45,.44,.67,.66,.1,.1,.2,.19,.29,.29,.09,.11,.18,.2,.29,.27,.1,.07,.22,.12,.35,.14,.09,.01,.18,.01,.27,0,.04,0,.08,.03,.16,.05-.16,.85-.3,1.71-.47,2.56-.04,.18-.07,.35-.1,.53-.06,.34-.1,.69-.11,1.03,0,.01,0,.02,0,.04,0,.18,0,.36,0,.54,.02,.27-.06,.46-.28,.63-.14,.1-.28,.21-.41,.33-.13,.11-.26,.23-.39,.35-.04,.03-.07,.07-.11,.11-.03,.04-.06,.09-.08,.13-.01,.03-.02,.06-.02,.09,0,.49-.01,.98-.01,1.47,0,.49,0,.99,0,1.5,.08,0,.16,.02,.23,.02,.07,0,.14,.01,.2,.01,.73,0,1.47,0,2.2,0,.21,0,.38,.04,.55,.17,.78,.59,1.56,1.18,2.35,1.75,.2,.14,.26,.3,.26,.54v21.62c33.88-3.15,60.4-31.65,60.4-66.36,0-12.69-3.55-24.55-9.7-34.64"/><path class="cls-7" d="M143.01,52.05c-.08-.07-.17-.14-.25-.2h0c.08,.07,.17,.13,.25,.2"/><path class="cls-7" d="M141.6,50.89c-.6-.48-1.2-.95-1.82-1.4,.59,.43,1.17,.88,1.74,1.34,.03,.02,.05,.04,.08,.06"/><path class="cls-7" d="M159.7,78.22c-.02-.07-.04-.14-.06-.22,.02,.07,.04,.14,.06,.22h0Z"/><path class="cls-7" d="M141.36,120.99s-.04,.04-.05,.05c.02-.02,.04-.04,.05-.05"/><path class="cls-7" d="M161.69,91.25s0-.08,0-.12c0,.04,0,.08,0,.12"/><path class="cls-7" d="M159.1,76.24c-.03-.1-.07-.21-.1-.31h0c.03,.1,.07,.21,.1,.31"/><path class="cls-7" d="M155.87,68.42s-.03-.06-.04-.09h0s.03,.06,.04,.09"/><path class="cls-7" d="M160.13,79.84c-.01-.05-.03-.11-.04-.16h0c.01,.05,.03,.1,.04,.16"/><path class="cls-7" d="M161.21,85.44c-.01-.09-.03-.18-.04-.26h0c.01,.09,.03,.18,.04,.26"/><path class="cls-7" d="M155.82,117.11c.19-.36,.37-.73,.55-1.1-.18,.37-.36,.73-.55,1.09h0Z"/><path class="cls-7" d="M160.09,79.68h0c-.12-.49-.25-.98-.39-1.47,.14,.49,.27,.98,.39,1.47"/><path class="cls-7" d="M159,75.93c-.11-.33-.23-.66-.34-.99,.11,.33,.23,.66,.34,.99h0Z"/><path class="cls-7" d="M161.71,92.78c0-.51,0-1.02-.02-1.53,.01,.51,.02,1.02,.02,1.53"/><path class="cls-7" d="M161.17,85.18c-.02-.16-.05-.33-.08-.49,.02,.16,.05,.33,.08,.49h0Z"/><path class="cls-7" d="M141.6,50.89h0Z"/><path class="cls-7" d="M141.6,50.89h0s-.05-.04-.08-.06c.03,.02,.05,.04,.08,.06"/><path class="cls-7" d="M126.54,87.08c.24,.16,.48,.33,.73,.49-.25-.16-.48-.33-.73-.49h0Z"/><path class="cls-7" d="M132.51,45h0Z"/><path class="cls-7" d="M138.09,48.3l.04,.02-.04-.02"/><path class="cls-7" d="M128.49,43.15c.06,.02,.12,.05,.18,.07-.06-.03-.12-.05-.18-.07"/><path class="cls-7" d="M125.04,86.06c.5,.35,1,.69,1.5,1.02h0c-.5-.34-1.01-.68-1.5-1.02"/><path class="cls-7" d="M119.82,40.41c.16,.04,.33,.08,.49,.11-.16-.04-.33-.08-.49-.11"/><path class="cls-7" d="M124.23,41.6c.13,.04,.26,.08,.39,.12-.13-.04-.26-.08-.39-.12"/><path class="cls-7" d="M122.24,41.01h0Z"/><polyline class="cls-7" points="151.36 61.08 151.36 61.08 151.36 61.08"/><polyline class="cls-7" points="141.6 50.89 141.6 50.89 141.6 50.89 141.6 50.89"/><polygon class="cls-7" points="151.64 61.47 151.63 61.47 151.64 61.47 151.64 61.47"/><polyline class="cls-7" points="154.95 66.7 154.95 66.7 154.95 66.7 154.95 66.7"/><polyline class="cls-7" points="155.82 68.33 155.82 68.33 155.82 68.33"/><path class="cls-7" d="M151.64,61.47h0c-.09-.13-.18-.26-.28-.39h0c.09,.13,.18,.26,.28,.39"/><path class="cls-7" d="M154.95,66.7c-.03-.05-.06-.1-.09-.16,.03,.05,.06,.1,.09,.16h0Z"/><polyline class="cls-7" points="141.6 50.89 141.6 50.89 141.6 50.89 141.6 50.89"/><polyline class="cls-7" points="155.82 68.33 155.82 68.33 155.82 68.33 155.82 68.33"/><polyline class="cls-7" points="142.77 51.85 142.77 51.85 142.77 51.85 142.77 51.85"/><path class="cls-7" d="M154.78,119.04c-.07,.12-.14,.24-.21,.36,.07-.12,.14-.24,.21-.36"/><path class="cls-7" d="M155.77,117.21s.03-.06,.05-.1h0s-.03,.06-.05,.1"/><path class="cls-7" d="M142.77,51.85c-.09-.08-.18-.15-.27-.22,.09,.08,.18,.15,.27,.22Z"/><path class="cls-7" d="M111.04,64.2c-.13,.48-.4,.93-.8,1.34,.4-.42,.67-.86,.8-1.34"/><path class="cls-7" d="M97.1,116.59c-1.17,0-2.31,0-3.41,0,1.1,0,2.24,0,3.41,0"/><path class="cls-7" d="M136.57,136.53c-.03-.13-.08-.26-.15-.38,.07,.12,.12,.25,.15,.38"/><path class="cls-7" d="M84.57,116.61c-.92,0-1.69,0-2.3,.01,.61,0,1.38,0,2.3-.01"/><polyline class="cls-7" points="73.73 130.53 73.74 130.53 73.73 130.53"/><path class="cls-7" d="M141.6,106.89h0c.13,0,.25,.02,.38,.03-.04,0-.07,0-.11,0-.09,0-.18-.02-.27-.02"/><path class="cls-7" d="M140.86,126.52c-.07-.36-.14-.72-.21-1.08-.1-.54-.19-1.08-.29-1.6,.09,.53,.19,1.07,.29,1.6,.07,.36,.14,.72,.21,1.08"/><path class="cls-7" d="M141.7,134.77c.19-.14,.38-.29,.57-.43,.08-.06,.13-.11,.17-.18-.04,.06-.1,.12-.17,.18-.19,.14-.38,.28-.57,.43"/><path class="cls-7" d="M142.33,130.49c.08,.06,.13,.13,.17,.21-.03-.08-.09-.14-.17-.21-.3-.24-.57-.51-.88-.73-.07-.05-.13-.1-.18-.16,.05,.06,.11,.11,.18,.16,.31,.22,.58,.49,.88,.73"/><path class="cls-7" d="M79.7,136.1c.27-.48,.5-.98,.77-1.46,.07-.12,.12-.25,.16-.38-.04,.13-.09,.25-.16,.38-.27,.48-.51,.98-.77,1.46"/><path class="cls-7" d="M79.5,143.95v0c0-2.34,0-4.68,0-7.02,0-.15,.01-.29,.05-.43-.03,.14-.05,.28-.05,.43,0,2.34,0,4.68,0,7.02"/><path class="cls-7" d="M146.41,129.48c-.04,.07-.1,.12-.17,.18-.09,.07-.17,.14-.25,.22,.08-.07,.17-.15,.25-.22,.07-.06,.13-.11,.17-.18"/><path class="cls-7" d="M143.65,121.74c-.34,.58-.8,1.01-1.32,1.37,.52-.36,.99-.79,1.32-1.37,.04-.08,.14-.13,.24-.22-.11,.09-.2,.14-.24,.22"/><path class="cls-7" d="M141.14,123.75c.07,0,.13-.03,.19-.06,.18-.1,.36-.2,.53-.3-.17,.1-.35,.2-.53,.3-.06,.03-.12,.05-.19,.06"/><path class="cls-7" d="M147.31,136.97c1.33-1.18,2.38-2.15,3.24-2.98,1.65-1.78,3.19-3.64,4.64-5.54-2.33,3.02-4.94,5.87-7.89,8.52"/><path class="cls-7" d="M155.19,128.45c.36-.47,.72-.95,1.08-1.43-.35,.48-.71,.96-1.08,1.43"/><path class="cls-7" d="M69.98,129.77c-.27-.2-.37-.43-.37-.77,0-.29,0-.58-.02-.87,.02,.29,.02,.58,.02,.87,0,.34,.1,.57,.37,.77,.31,.23,.6,.48,.87,.74,.05,.05,.1,.11,.13,.18-.04-.07-.08-.13-.13-.18-.28-.26-.57-.52-.87-.74"/><path class="cls-7" d="M74.57,129.82c.07-.06,.14-.12,.22-.18,.06-.05,.1-.1,.14-.16-.03,.06-.08,.11-.14,.16-.07,.06-.14,.12-.22,.18"/><path class="cls-7" d="M71.06,132.43c0,.51,0,1.02,0,1.54,0,.02,0,.04-.02,.07,.01-.03,.02-.05,.02-.07,0-.51,0-1.02,0-1.54"/><path class="cls-7" d="M68.88,123.8c.04,.24,.07,.48,.12,.71,.17,.92,.37,1.83,.51,2.75-.14-.92-.34-1.83-.51-2.75-.04-.23-.08-.47-.12-.71"/><path class="cls-7" d="M106.86,72.32s-.04,.09-.06,.14c-.22,.5-.45,.99-.7,1.47,.25-.48,.49-.97,.7-1.47,.02-.05,.04-.09,.06-.14"/><path class="cls-7" d="M105.85,65.38c.24,.3,.53,.57,.86,.8-.33-.24-.63-.5-.86-.8"/><path class="cls-7" d="M105.19,63.6c.01,.24,.05,.49,.13,.73,.12,.4,.3,.74,.54,1.05-.24-.3-.42-.65-.54-1.05-.07-.24-.11-.49-.13-.73"/><path class="cls-7" d="M105.31,66.4c.6,0,1.15-.02,1.7-.03-.55,0-1.1,.02-1.7,.03"/><path class="cls-7" d="M82.69,98.9c.05,.15,.07,.3,.07,.47-.01,2.31,0,4.62,0,6.93,0-2.31,0-4.62,0-6.93,0-.17-.02-.32-.07-.47"/><path class="cls-7" d="M88.77,90.45c1.09-.69,2.16-1.41,3.22-2.15-1.06,.74-2.13,1.46-3.22,2.15"/><path class="cls-7" d="M107.06,71.82h0c-.06,.14-.1,.26-.14,.36,.04-.1,.09-.22,.14-.36"/><path class="cls-7" d="M135.77,94.95s-.09-.05-.13-.07c-1.01-.51-2.01-1.03-3-1.57,.99,.54,1.99,1.06,3,1.57,.04,.02,.09,.05,.13,.07"/><path class="cls-7" d="M80.33,95.18h0c.11,.18,.2,.32,.29,.46,.62,.95,1.23,1.9,1.86,2.84-.63-.94-1.24-1.89-1.86-2.84-.09-.14-.18-.28-.29-.46"/><path class="cls-7" d="M133.97,98.6c-.14,.21-.2,.43-.2,.68,0,1.17,0,2.34,0,3.51,0-1.17,0-2.34,0-3.51,0-.26,.06-.47,.2-.68,.68-1.02,1.35-2.04,2.02-3.07,.07-.11,.13-.23,.21-.36-.08,.13-.14,.25-.21,.36-.67,1.02-1.34,2.05-2.02,3.07"/><path class="cls-7" d="M82.94,106.88s-.08-.03-.19-.06c.11,.04,.15,.06,.19,.06,16.8,0,33.61,0,50.41,0,.1,0,.2-.01,.29-.02-.1,0-.19,.02-.29,.02-16.8,0-33.61,0-50.41,0"/><path class="cls-7" d="M76.47,109.16h-.02s-.02,.01-.02,.02c0,0,.02-.01,.02-.02h.02"/><path class="cls-7" d="M110.73,58.85l.03,.02-.03-.02"/><path class="cls-7" d="M110.76,58.87h0"/><path class="cls-7" d="M141.98,106.92s0,.08,0,.14c0-.05,0-.1,0-.14-.04,0-.07,0-.11,0,.04,0,.07,0,.11,0"/><path class="cls-7" d="M161.57,96.57c.01-.18,.02-.36,.03-.55h0c-.01,.18-.02,.37-.03,.55"/><path class="cls-7" d="M87.56,88.4c.7-.45,1.4-.9,2.1-1.36,.74-.49,1.47-1,2.2-1.53-.72,.52-1.45,1.03-2.2,1.53-.69,.46-1.39,.92-2.1,1.36"/><polyline class="cls-7" points="111.18 59.14 111.18 59.14 111.19 59.15 111.19 59.15 111.18 59.14"/><path class="cls-7" d="M103.16,74.12h0c-.06,.1-.11,.19-.16,.26,.05-.08,.1-.16,.16-.26"/><path class="cls-7" d="M161.7,93.45c0-.17,.01-.35,.01-.52,0,.17,0,.35-.01,.52"/><path class="cls-7" d="M161.65,95.17c0-.19,.02-.38,.02-.58,0,.19-.01,.38-.02,.58Z"/><path class="cls-7" d="M161.67,94.59c0-.06,0-.13,0-.19,0,.06,0,.13,0,.19"/><path class="cls-7" d="M70.09,120.6c.05-.09,.09-.18,.13-.27,.13-.34,.27-.68,.4-1-.13,.33-.26,.66-.4,1-.04,.1-.08,.19-.13,.27"/><path class="cls-7" d="M113.31,62.53c0,.05,.01,.1,.02,.15h0c0-.05-.01-.1-.02-.15"/><path class="cls-7" d="M113.38,63.08c0,.08,0,.15,0,.23h0c0-.08,0-.15,0-.23"/><path class="cls-7" d="M113.38,63.04v0"/><path class="cls-7" d="M113.29,66.84c-.02-.15-.05-.25-.05-.35,0,.1,.03,.2,.05,.35"/><path class="cls-7" d="M110.32,58.64c.14,.07,.28,.13,.41,.21-.02,0-.03-.02-.04-.03-.12-.07-.24-.13-.37-.18"/><path class="cls-7" d="M111.19,59.15c.2,.14,.38,.3,.55,.47-.07-.07-.14-.14-.21-.2-.11-.09-.23-.18-.34-.27"/><path class="cls-7" d="M111.83,59.7c.17,.17,.34,.36,.49,.55-.12-.15-.24-.3-.37-.44-.04-.04-.08-.07-.12-.11"/><path class="cls-7" d="M111.75,59.62s.06,.06,.09,.08c-.03-.03-.06-.06-.09-.08"/><path class="cls-7" d="M112.32,39.26h0"/><path class="cls-7" d="M110.69,58.82s.03,.02,.04,.03c-.02,0-.03-.02-.04-.03"/><path class="cls-7" d="M111.95,59.82c.13,.14,.25,.29,.37,.44-.12-.15-.24-.3-.37-.44"/><path class="cls-7" d="M110.96,59c.07,.05,.15,.09,.22,.14h0c-.07-.05-.15-.09-.22-.14"/><path class="cls-7" d="M110.77,58.87c.07,.04,.13,.09,.2,.13-.07-.04-.13-.09-.2-.13h0Z"/><path class="cls-7" d="M111.19,59.15h0c.12,.09,.23,.17,.34,.27-.11-.09-.23-.18-.34-.27"/><path class="cls-7" d="M161.69,93.93c0-.16,0-.32,.01-.47,0,.16,0,.32-.01,.47"/><path class="cls-7" d="M161.68,94.4c0-.16,0-.32,.01-.47,0,.16,0,.32-.01,.47"/><path class="cls-7" d="M161.62,95.68c.01-.17,.02-.34,.03-.51h0c0,.17-.02,.34-.03,.51"/><path class="cls-7" d="M161.6,96.02c0-.11,.01-.23,.02-.34,0,.11-.01,.23-.02,.34"/><path class="cls-7" d="M141.05,106.89c.18,0,.37,0,.55,0-.12,0-.25,0-.38,0-.06,0-.12,0-.17,0"/><path class="cls-7" d="M141.22,106.89c.13,0,.25,0,.38,0h0c-.13,0-.25,0-.38,0"/><path class="cls-7" d="M113.38,63.3c0,.09,0,.17,0,.26h0c0-.09,0-.18,0-.26"/><path class="cls-7" d="M113.22,62.12c.04,.14,.07,.27,.09,.41v-.04c-.03-.13-.06-.25-.09-.38"/><path class="cls-7" d="M113.05,61.56c-.08-.22-.19-.43-.3-.64,.11,.21,.21,.42,.3,.64"/><path class="cls-7" d="M112.32,60.25c.14,.18,.26,.38,.38,.58-.05-.08-.09-.17-.14-.25-.07-.11-.15-.22-.23-.32"/><path class="cls-7" d="M112.75,60.92s-.03-.06-.05-.09c.02,.03,.03,.06,.05,.09"/><path class="cls-7" d="M112.32,60.25h0c.08,.11,.16,.21,.23,.32-.07-.11-.15-.22-.23-.32"/><path class="cls-7" d="M113.33,62.68h0c.02,.12,.03,.24,.04,.36,0-.12-.03-.24-.04-.36"/><path class="cls-7" d="M113.38,63.3h0c0,.08,0,.17,0,.25,0-.08,0-.17,0-.25"/><path class="cls-7" d="M141.87,106.91s.07,0,.11,0c-.13-.02-.25-.03-.38-.03h0c.09,0,.18,.01,.27,.02"/><path class="cls-7" d="M105.62,102.5c0,.17,.02,.34,.06,.52,0,.03,.02,.06,.03,.08,0-.03-.02-.06-.03-.08-.04-.17-.06-.35-.06-.52"/><path class="cls-7" d="M123.14,104.91h0c-.16,0-.31,0-.46-.03,.14,.02,.3,.03,.46,.03"/><path class="cls-7" d="M120.64,102.63c-.02-.36,.04-.72,.17-1.05-.13,.33-.19,.69-.17,1.05"/><path class="cls-7" d="M125.22,101.01c-.09-.12-.2-.24-.32-.34-.12-.11-.25-.2-.38-.28,.14,.08,.27,.17,.38,.28,.12,.11,.22,.22,.32,.34"/><path class="cls-7" d="M95.54,113c-.02-.13-.03-.3-.04-.49,0,.19,.02,.36,.04,.49"/><path class="cls-7" d="M107.45,111.76c0-.48,0-.96,.01-1.45h0c0,.49-.01,.97-.01,1.45"/><polygon class="cls-7" points="125.44 110.31 126.57 110.31 126.57 113.19 126.57 110.31 125.44 110.31 125.44 110.31"/><path class="cls-7" d="M84.67,110.3h0c.02,.24,.03,.48,.03,.71,0-.24-.02-.48-.03-.71"/><path class="cls-7" d="M137.41,110.33h0c.09-.02,.18-.04,.27-.05-.09,0-.18,.02-.27,.05"/><path class="cls-7" d="M108.77,124.25c-.22-.22-.45-.45-.69-.68-.06,.06-.12,.11-.17,.16,.06-.05,.11-.11,.17-.16,.23,.23,.46,.46,.69,.68"/><path class="cls-7" d="M110.21,128.75c-.06,.34-.1,.69-.11,1.03,.01-.35,.05-.69,.11-1.03"/><path class="cls-7" d="M110.63,125.62s.08,.03,.16,.05c-.07-.02-.12-.06-.16-.05"/><path class="cls-7" d="M107.43,124.21c-.32,.32-.64,.63-.94,.96-.14,.15-.28,.28-.43,.36,.16-.08,.3-.21,.43-.36,.3-.33,.62-.65,.94-.96"/><path class="cls-7" d="M106.83,134.99c-.34,0-.67,0-1.01,0,.34,0,.67,0,1.01,0Z"/><path class="cls-7" d="M104.1,135.23c-.73,.56-1.46,1.11-2.21,1.64-.06,.04-.11,.08-.15,.13,.04-.04,.09-.09,.15-.13,.75-.53,1.48-1.09,2.21-1.64"/><path class="cls-7" d="M107.36,132.14c0,.84,0,1.68,0,2.52,0,.05,0,.1-.02,.16,0-.05,.02-.1,.02-.16,0-.84,0-1.68,0-2.52"/><path class="cls-7" d="M110.01,125.48c.1,.07,.22,.12,.35,.14-.13-.02-.24-.07-.35-.14"/><path class="cls-7" d="M109.03,134.98c-.07,0-.14-.02-.23-.02,0-.51,0-1,0-1.5,0,.49,0,.99,0,1.5,.08,0,.16,.02,.23,.02"/><path class="cls-7" d="M109.72,125.21c-.08-.11-.19-.2-.29-.29-.22-.22-.44-.44-.67-.66,.23,.22,.45,.44,.67,.66,.1,.1,.2,.19,.29,.29"/><path class="cls-7" d="M111.43,134.99c.21,0,.38,.04,.55,.17,.78,.59,1.56,1.18,2.35,1.75,.2,.14,.26,.3,.26,.54,0-.24-.06-.4-.26-.54-.79-.57-1.57-1.16-2.35-1.75-.17-.13-.34-.17-.55-.17-.73,0-1.47,0-2.2,0-.07,0-.13,0-.2-.01,.07,0,.14,.01,.2,.01,.73,0,1.47,0,2.2,0"/><path class="cls-7" d="M59.94,60.95l-.94-.55c-.29,.43-.57,.87-.84,1.31l.99,.58,.79-1.34Z"/><path class="cls-7" d="M105.81,101.54c-.13,.3-.19,.62-.19,.96,0,.17,.02,.34,.06,.52,0,.03,.02,.06,.03,.08,.08,.33,.24,.66,.49,.95,.26,.31,.62,.57,1.05,.72,.29,.1,.62,.15,.98,.13,.01,0,.09,0,.17,0,.66-.03,1.23-.31,1.64-.74,.12-.12,.22-.26,.31-.4,.13-.22,.23-.46,.29-.71,.04-.17,.06-.34,.06-.52,0-.09,0-.18-.01-.27,0-.09-.02-.18-.04-.27-.11-.5-.35-.92-.69-1.24-.34-.32-.77-.54-1.25-.64-.32-.06-.67-.07-1.02,0-.53,.09-.99,.33-1.33,.66-.23,.22-.41,.49-.54,.79"/><path class="cls-7" d="M95.55,101.68c-.12-.35-.32-.65-.56-.89-.37-.37-.85-.62-1.37-.71-.35-.06-.71-.06-1.07,.02-.18,.04-.36,.1-.53,.18-.13,.06-.25,.13-.37,.21-.34,.23-.62,.55-.8,.91-.06,.12-.11,.25-.15,.37-.03,.1-.05,.2-.07,.3-.04,.2-.05,.41-.03,.62,0,.11,.02,.21,.05,.32,.07,.35,.22,.67,.43,.94,.21,.28,.48,.51,.8,.68,.25,.13,.54,.23,.84,.26,.15,.02,.31,.03,.48,.02,0,0,.03,0,.07,0,.04,0,.08,0,.13,0,.28-.01,.54-.07,.78-.17,.24-.1,.46-.23,.65-.4,.07-.06,.13-.12,.19-.18,.06-.06,.11-.12,.16-.19,.09-.11,.17-.23,.23-.36,.08-.16,.15-.33,.2-.51,.07-.27,.09-.55,.07-.83-.02-.19-.06-.38-.13-.57"/><path class="cls-7" d="M122.69,104.88c.14,.02,.3,.03,.46,.03,.17,0,.32,0,.47-.02,.3-.04,.56-.13,.8-.24,.58-.3,.96-.81,1.15-1.29,.04-.12,.08-.24,.11-.36,.03-.12,.04-.24,.05-.36,0-.12,0-.24,0-.36-.04-.45-.21-.89-.49-1.26-.09-.12-.2-.24-.32-.34-.12-.11-.25-.2-.38-.28-.41-.24-.89-.36-1.36-.35-.16,0-.32,.02-.47,.04-.23,.04-.46,.11-.68,.22-.21,.1-.41,.23-.59,.4-.09,.08-.17,.17-.25,.27-.08,.09-.14,.19-.2,.3-.06,.1-.11,.21-.16,.32-.13,.33-.19,.69-.17,1.05,.01,.24,.06,.48,.15,.71,.25,.67,.89,1.39,1.9,1.54"/><path class="cls-7" d="M77.53,110.97c0,.07,0,.14,0,.21,0,.15,0,.3,0,.45,0,.15,0,.3,0,.45,0,.15,0,.29,.01,.42,.02,.33,.04,.59,.07,.68h1.07v-2.88h-1.1c-.02,.15-.04,.39-.05,.66"/><path class="cls-7" d="M89.59,110.3c-.05,.15-.08,.64-.09,1.18h0c0,.16,0,.32,0,.47,0,.27,.01,.53,.02,.75,.01,.22,.03,.38,.06,.47h1.08v-2.88h-1.07Z"/><path class="cls-7" d="M95.51,110.61c-.02,.34-.03,.82-.03,1.27,0,.23,0,.45,.02,.64s.02,.36,.04,.49c0,.04,.01,.08,.02,.11,0,.03,.01,.06,.02,.08h1.06v-2.88h-1.1c-.01,.08-.02,.18-.03,.29"/><path class="cls-7" d="M101.46,111.25c0,.13,0,.26,0,.39,0,.08,0,.15,0,.23,0,.3,.01,.59,.03,.83,.02,.24,.04,.41,.06,.49h1.06v-2.88h-1.1c-.03,.21-.05,.56-.06,.94"/><path class="cls-7" d="M107.45,111.76c0,.48,0,.96,.02,1.44h1.14v-2.89h-1.15c0,.49-.01,.97-.01,1.45"/><path class="cls-7" d="M119.43,111.04c0,.36,0,.72,0,1.08,0,.36,0,.71,.03,1.07h1.13v-2.88h-1.15c0,.25,0,.49,0,.73"/><rect class="cls-7" x="125.44" y="110.31" width="1.13" height="2.88"/><rect class="cls-7" x="131.42" y="110.31" width="1.13" height="2.87"/><path class="cls-7" d="M84.67,110.3h-1.12v2.89h1.14c0-.5,.02-.98,.02-1.46,0-.24,0-.48,0-.72,0-.24-.02-.48-.03-.71"/><path class="cls-7" d="M113.51,110.28c-.02,.12-.04,.28-.05,.47-.01,.19-.02,.41-.02,.64,0,.23,0,.46,0,.68,0,.13,0,.26,.01,.37,.02,.35,.05,.64,.08,.74h1.06v-2.91h-1.09Z"/><path class="cls-7" d="M137.95,110.27h0c-.09,0-.18,0-.27,.01-.09,0-.18,.02-.27,.05v2.86h1.13v-2.88c-.1,0-.2-.01-.3-.02-.1,0-.19-.01-.28-.01"/><path class="cls-7" d="M101.6,150.44c.1,.02,.18,.04,.25,.05,1.22,.1,2.44,.19,3.65,.29,.24,.02,.48,.06,.72,.09h.83c0-.12-.02-.24-.02-.36,0-2.84,0-5.68,0-8.52v-.53h2.1c0,.17,.02,.35,.02,.52,0,2.76,0,5.53,0,8.29,0,.2,0,.4,0,.6h.83c.15-.03,.3-.07,.45-.08,.75-.05,1.5-.08,2.24-.13,.62-.05,1.24-.12,1.88-.18,.01-.16,.03-.28,.03-.4,0-4.18,0-8.37,0-12.55v-.06c0-.24-.06-.4-.26-.54-.79-.57-1.57-1.16-2.35-1.75-.17-.13-.34-.17-.55-.17-.73,0-1.47,0-2.2,0-.07,0-.13,0-.2-.01-.07,0-.14-.02-.23-.02,0-.51,0-1,0-1.5,0-.49,0-.98,.01-1.47,0-.03,0-.06,.02-.09,.02-.04,.05-.09,.08-.13,.03-.04,.07-.08,.11-.11,.13-.12,.26-.24,.39-.35,.13-.11,.27-.22,.41-.33,.22-.16,.3-.36,.28-.63-.01-.18-.01-.36,0-.54,0-.01,0-.02,0-.04,.01-.35,.05-.69,.11-1.03,.03-.18,.06-.35,.1-.53,.18-.85,.32-1.7,.47-2.56-.07-.02-.12-.06-.16-.05-.1,.02-.19,.02-.27,0-.13-.02-.24-.07-.35-.14-.1-.07-.2-.16-.29-.27-.08-.11-.19-.2-.29-.29-.22-.22-.44-.44-.67-.66-.22-.22-.45-.45-.69-.68-.06,.06-.12,.11-.17,.16-.05,.05-.11,.1-.16,.15-.11,.11-.21,.21-.32,.32-.32,.32-.64,.63-.94,.96-.14,.15-.28,.28-.43,.36-.16,.08-.34,.12-.55,.09-.02,0-.05,.03-.11,.06,.05,.28,.1,.58,.15,.87,.08,.49,.19,.98,.28,1.47,.1,.49,.18,.98,.22,1.47,.03,.33,.03,.66,0,1-.01,.17,.06,.29,.18,.39,.3,.24,.58,.5,.88,.74,.04,.03,.08,.07,.11,.11,.06,.07,.1,.16,.12,.25,0,.05,.01,.1,.01,.15,0,.84,0,1.68,0,2.52,0,.05,0,.1-.02,.16,0,.05-.02,.11-.03,.18h-.47c-.34,0-.67,0-1.01,0-.34,0-.67,0-1.01,0-.28,0-.5,.07-.71,.24-.73,.56-1.46,1.11-2.21,1.64-.06,.04-.11,.08-.15,.13-.04,.04-.08,.09-.1,.14-.05,.1-.08,.22-.08,.37,.01,4.17,0,8.35,0,12.52,0,.13,.02,.27,.03,.41"/><path class="cls-6" d="M179.05,49.93c-.27-.44-.54-.88-.82-1.32l-1.09,.64-1.47,.87-4.02,2.38-7.19,4.26-6.86,4.06c-10.51-16.15-28.73-26.84-49.44-26.84s-38.61,10.5-49.16,26.42l.94,.55-.79,1.34-.99-.58c-5.66,9.05-8.94,19.75-8.94,31.22,0,17.7,7.8,33.58,20.15,44.38v-3.17h1.62s.03-.08,.04-.1c.01-.03,.02-.05,.02-.07,0-.51,0-1.02,0-1.54,0-.51,0-1.02,0-1.54,0-.07-.02-.14-.06-.2-.04-.07-.08-.13-.13-.18-.28-.26-.56-.52-.87-.74-.27-.2-.37-.43-.37-.77,0-.29,0-.58-.02-.87-.02-.29-.04-.58-.09-.86-.14-.92-.34-1.83-.51-2.75-.04-.23-.08-.47-.12-.71,.08,0,.15-.01,.23-.01,.11,0,.22,0,.32-.01,.1,0,.19-.03,.27-.07,.53-.26,1.03-.55,1.47-.92,.14-.12,.28-.24,.4-.37h0c.09-.1,.17-.2,.25-.3,.08-.1,.15-.21,.22-.33,.03-.04,.06-.08,.09-.12,.03-.04,.07-.08,.1-.12l.02-.02s.07,.05,.1,.07c.02,.02,.04,.03,.05,.05,.2,.39,.47,.71,.78,.99,.31,.28,.66,.52,1.01,.74,.2,.12,.39,.24,.6,.32,.21,.08,.43,.11,.68,.07,.03,0,.07,0,.11,0,.04,0,.09,.02,.14,.03v.08c-.08,.35-.14,.68-.19,1.01-.03,.18-.06,.36-.09,.53-.07,.36-.14,.71-.21,1.07-.17,.89-.32,1.78-.25,2.7,0,.11-.02,.2-.07,.27-.04,.06-.08,.11-.14,.16-.07,.06-.14,.12-.22,.18-.24,.21-.48,.42-.73,.61-.04,.03-.07,.06-.1,.09h0s-.05,.08-.08,.11c-.06,.11-.1,.23-.09,.38,.01,.92,.02,1.84,0,2.75,0,.14,.02,.25,.07,.35,.05,.1,.13,.18,.24,.26,.85,.62,1.68,1.27,2.54,1.89,.31,.22,.42,.46,.41,.84-.02,1.8,0,3.61-.02,5.41,0,.15,.02,.28,.07,.38,.43,.27,.86,.53,1.3,.79,.44,.26,.88,.51,1.32,.76v-.49c0-2.34,0-4.68,0-7.02,0-.15,.01-.29,.05-.43,.03-.14,.08-.27,.16-.4,.27-.48,.5-.98,.77-1.46,.07-.12,.12-.25,.16-.38,.07-.21,.1-.43,.1-.67,0-5.46,0-10.92,0-16.38,0-.19,0-.39,.01-.57,.04,0,.19,0,.45-.01,.13,0,.28,0,.46,0,.18,0,.38,0,.61,0,.61,0,1.38,0,2.3-.01,.92,0,1.98,0,3.15,0,.88,0,1.82,0,2.82,0,.33,0,.67,0,1.02,0,.69,0,1.4,0,2.13,0,1.1,0,2.24,0,3.41,0,.78,0,1.58,0,2.38,0h2.45c2.06,0,4.18,0,6.29,0,.84,0,1.69,0,2.53,0,.84,0,1.68,0,2.51,0,.83,0,1.65,0,2.47,0,10.58,.02,19.49,.05,19.63,.09v.58c0,5.46,0,10.92,0,16.38,0,.08,0,.16,.01,.23,0,.08,.02,.15,.04,.22,.02,.07,.04,.14,.07,.21,.03,.07,.06,.14,.1,.21,.3,.53,.56,1.08,.86,1.62,.07,.12,.12,.25,.15,.38,.02,.07,.03,.13,.03,.2,0,.07,.01,.14,.01,.21,0,2.34,0,4.68,0,7.02v.54c.07-.03,.12-.05,.17-.07,.05-.02,.09-.04,.12-.06,.66-.38,1.32-.78,1.99-1.15,.1-.06,.18-.12,.24-.2,.11-.13,.15-.28,.15-.5-.02-1.85,0-3.7-.01-5.55,0-.15,.02-.26,.07-.37,.05-.1,.13-.19,.25-.28,.71-.52,1.41-1.05,2.11-1.57,.19-.14,.38-.29,.57-.43,.08-.06,.13-.11,.17-.18,.04-.06,.07-.12,.09-.19,.01-.05,.02-.1,.01-.17-.01-.95-.01-1.9,0-2.84,0-.05,0-.1-.01-.14,0-.04-.02-.09-.04-.12-.03-.08-.09-.14-.17-.21-.3-.24-.57-.51-.88-.73-.07-.05-.13-.1-.18-.16-.09-.11-.15-.24-.17-.39-.01-.07-.01-.15-.01-.24,.02-.46,.02-.92-.05-1.37-.05-.36-.12-.72-.19-1.08-.07-.36-.14-.72-.21-1.08-.1-.54-.19-1.08-.29-1.6,.06-.03,.09-.05,.11-.06,.15,0,.31,0,.46-.02,.07,0,.14-.01,.21-.02,.07,0,.13-.03,.19-.06,.18-.1,.36-.2,.53-.3,.16-.09,.31-.19,.46-.29,.52-.36,.99-.79,1.32-1.37,.04-.08,.14-.13,.24-.22,.45,.87,1.14,1.41,1.9,1.88,.1,.06,.19,.12,.29,.17,.07,.04,.15,.07,.22,.11,.23,.09,.46,.14,.73,.1,.05,0,.11,.03,.18,.05-.06,.33-.11,.65-.16,.96-.24,1.47-.68,2.92-.58,4.44,0,.05,0,.09-.01,.13-.01,.04-.03,.08-.05,.11-.04,.07-.1,.12-.17,.18-.09,.07-.17,.14-.25,.22-.23,.2-.46,.4-.69,.58-.05,.04-.09,.07-.12,.11-.07,.08-.1,.17-.12,.27,0,.05-.01,.11-.01,.16,.01,.92,0,1.83,0,2.75,0,.12,.02,.23,.04,.4h1.64v3.32c.25-.21,.41-.36,.58-.5,2.95-2.65,5.56-5.5,7.89-8.52-1.45,1.9-3,3.76-4.64,5.54,3.07-2.97,3.72-4.18,5.72-6.97,.1-.14,.2-.29,.3-.44,.19-.27,.38-.55,.57-.83,6.3-9.38,9.98-20.67,9.98-32.82,0-11.29-3.17-21.83-8.68-30.79l6.85-4.06,7.18-4.25c6.75,11.25,10.64,24.42,10.64,38.49,0,41.36-33.53,74.89-74.89,74.89S33.32,133.68,33.32,92.32c0-14.24,3.97-27.55,10.87-38.88l7.37,4.37,6.6,3.91c.28-.44,.56-.88,.84-1.31l-6.61-3.91-7.38-4.37-4.16-2.46-1.13-.67-1.02-.6c-.28,.44-.55,.88-.82,1.32-7.59,12.48-11.96,27.13-11.96,42.8,0,45.55,36.93,82.48,82.48,82.48s82.48-36.93,82.48-82.48c0-15.58-4.32-30.14-11.83-42.57M76.35,114.32v-5.09s.04-.04,.05-.05h.01s.02-.02,.02-.02h.03c.13-.01,.26-.03,.38-.03,20.9,0,41.81,0,62.71,0,.04,0,.09,.03,.16,.05v5.13h-63.37Zm27.86-42.51v-2.7h1.09v-2.71c.6-.01,1.15-.02,1.7-.03-.1-.06-.2-.13-.3-.2-.33-.24-.62-.5-.86-.8-.24-.3-.42-.65-.54-1.05-.07-.24-.11-.49-.13-.73-.01-.24,0-.49,.05-.73,.03-.16,.08-.32,.14-.48,.33-.9,1.11-1.61,1.97-1.89,.14-.05,.29-.08,.44-.1,.15-.02,.3-.03,.44-.02,.16,0,.32,.03,.47,.06,.16,.03,.31,.08,.45,.14,.15,.06,.29,.13,.43,.21,.41,.24,.77,.58,1.03,.99,.18,.27,.31,.57,.4,.89,.05,.18,.08,.36,.1,.53,.04,.35,0,.68-.08,1-.13,.48-.4,.93-.8,1.34-.27,.28-.6,.54-1,.79,.59,.13,1.15,0,1.74,.1v2.66h1.11v2.73h-2.6c.04,.11,.07,.2,.1,.29,.03,.08,.06,.16,.09,.23,.34,.79,.72,1.56,1.14,2.3,.18,.31,.36,.61,.55,.91,.57,.9,1.19,1.77,1.86,2.6,2.12,2.66,4.57,4.97,7.21,7.09,2.94,2.36,6.03,4.48,9.25,6.4,.97,.57,1.94,1.13,2.93,1.67,.99,.54,1.99,1.06,3,1.57,.04,.02,.09,.05,.13,.07,.13,.07,.27,.14,.42,.22-.08,.13-.14,.25-.21,.36-.67,1.02-1.34,2.05-2.02,3.07-.14,.21-.2,.43-.2,.68,0,1.17,0,2.34,0,3.51,0,1.17,0,2.34,0,3.51v.47l-.04,.05-.02,.02s-.02,.03-.04,.03h-.03c-.1,.01-.19,.03-.29,.03-16.8,0-33.61,0-50.41,0-.04,0-.08-.03-.19-.06v-.52c0-2.31,0-4.62,0-6.93,0-.17-.02-.32-.07-.47-.04-.15-.11-.29-.21-.42-.63-.94-1.24-1.89-1.86-2.84-.09-.14-.18-.28-.29-.46,.16-.08,.31-.16,.45-.24,2.74-1.37,5.41-2.86,7.99-4.49,1.09-.69,2.16-1.41,3.22-2.15,1.44-1.01,2.86-2.06,4.24-3.18,1.32-1.06,2.59-2.18,3.79-3.36,.76-.75,1.49-1.53,2.2-2.33,.41-.47,.81-.94,1.19-1.43,.34-.43,.66-.86,.98-1.31,.63-.89,1.2-1.8,1.7-2.76,.25-.48,.49-.97,.7-1.47,.02-.05,.04-.09,.06-.14,.02-.05,.04-.1,.06-.15,.04-.1,.09-.22,.14-.36h-2.84Zm54.44,3.13c.11,.33,.23,.66,.34,.99,.03,.1,.07,.21,.1,.31l.07,.2c.13,.41,.26,.82,.38,1.23,.03,.11,.07,.21,.1,.32,.02,.07,.04,.14,.06,.22,.14,.49,.27,.98,.39,1.47,.01,.05,.03,.11,.04,.16,0,.03,.01,.05,.02,.08,.14,.56,.27,1.12,.38,1.68,.01,.05,.03,.11,.04,.16,.02,.12,.04,.24,.07,.36,.08,.4,.16,.8,.23,1.2,.02,.11,.04,.22,.06,.32,.02,.09,.03,.17,.04,.26,.04,.26,.08,.52,.12,.78,.02,.16,.05,.33,.08,.49,.01,.09,.03,.18,.04,.26,0,.06,.02,.11,.02,.17,.07,.54,.14,1.08,.19,1.62,0,.05,.01,.1,.02,.15,.01,.14,.02,.28,.03,.41,.03,.37,.07,.74,.09,1.11,0,.11,.02,.22,.03,.34,0,.11,0,.22,.02,.32,.02,.36,.04,.71,.05,1.07,0,.16,.01,.32,.02,.49,0,.04,0,.08,0,.12,.01,.51,.02,1.02,.02,1.53,0,.05,0,.1,0,.15,0,.17,0,.35-.01,.52,0,.16,0,.32-.01,.47,0,.16,0,.32-.01,.47,0,.06,0,.13,0,.19,0,.19-.01,.39-.02,.58,0,.17-.02,.34-.03,.51,0,.11-.01,.23-.02,.34-.01,.18-.02,.37-.03,.55,0,.08-.01,.15-.02,.23-.03,.35-.06,.69-.09,1.03-.04,.41-.08,.82-.13,1.22-.03,.24-.06,.47-.09,.71-.04,.3-.08,.6-.13,.89-.03,.21-.07,.42-.1,.63-.05,.31-.1,.62-.16,.93-.03,.14-.05,.28-.08,.42-.12,.66-.26,1.31-.41,1.95-.03,.12-.05,.25-.08,.37-.08,.34-.16,.68-.25,1.02-.04,.14-.07,.28-.11,.41-.09,.35-.19,.7-.28,1.04-.01,.05-.03,.1-.04,.15-.34,1.19-.72,2.36-1.14,3.5-.03,.07-.05,.15-.08,.22-.14,.37-.28,.74-.42,1.11v.02c-.47,1.18-.98,2.34-1.52,3.47-.02,.03-.03,.07-.05,.1-.18,.37-.36,.74-.55,1.1-.02,.03-.03,.06-.05,.1-.32,.62-.65,1.23-.99,1.84-.07,.12-.14,.24-.21,.36-.36,.62-.72,1.23-1.1,1.82-.01,.02-.02,.03-.03,.05-.27,.42-.54,.83-.82,1.24-.04,.05-.07,.11-.11,.16-.25,.37-.51,.74-.77,1.1-.08,.11-.16,.21-.23,.31-.23,.31-.45,.61-.69,.91-.14,.19-.29,.36-.44,.55-.17,.22-.34,.44-.52,.65-.33,.4-.66,.78-1,1.16,.18-1,.36-1.97,.54-2.93,.18-.96,.35-1.92,.53-2.89-.16-.02-.27-.04-.39-.04-.7,0-1.41,0-2.11,0-.71,0-1.16-.41-1.47-.99-.2-.37-.32-.79-.48-1.2h-3.31c-.14,.36-.28,.73-.43,1.09-.09,.22-.22,.42-.39,.58-.02,.02-.04,.04-.05,.05-.09,.08-.19,.16-.3,.23l-.04,.02c-.11,.06-.23,.11-.35,.14-.02,0-.04,0-.06,.01-.13,.03-.26,.05-.39,.05-.82,0-1.65,0-2.46,0-.11-.35-.14-4.05-.05-4.87,.45-.06,.92-.02,1.39-.03,.49,0,.98,0,1.47,0h1.41s.03-.21,.04-.47c0-.13,.01-.28,.02-.45,0-.09,0-.18,0-.27,0-.19,.01-.4,.01-.62,0-.22,0-.46,.01-.7,0-.25,0-.5,.01-.77,0-.4,0-.81,.01-1.22,0-.28,0-.56,0-.83,0-.28,0-.55,0-.82,0-.41,0-.8,0-1.17,0-.12,0-.24,0-.36,0-.35,0-.68-.01-.96,0-.38-.02-.69-.03-.9,0-.05,0-.1,0-.14-.13-.02-.25-.03-.38-.03h0c-.18,0-.37,0-.55,0-.2,0-.4,0-.59,0-.5,0-1.01,0-1.51,0h-3.1c-.02-.15-.05-.27-.05-.38,0-2.2,0-4.4,0-6.61,0-.25,.09-.44,.22-.63,1.01-1.53,2.01-3.07,3.02-4.6,.08-.13,.16-.26,.26-.42-.13-.07-.24-.14-.36-.2-.79-.37-1.59-.72-2.36-1.12-3.19-1.62-6.29-3.41-9.29-5.36-.24-.16-.48-.33-.73-.49-.5-.34-1-.68-1.5-1.03-.07-.05-.13-.09-.2-.14-.44-.31-.87-.62-1.3-.94-.19-.14-.38-.29-.58-.44-.31-.24-.62-.47-.93-.72-.51-.41-1.02-.82-1.52-1.25-1.23-1.06-2.42-2.16-3.55-3.32-.56-.58-1.1-1.18-1.62-1.8-.52-.62-1.02-1.26-1.49-1.93-.31-.43-.59-.88-.95-1.41h1.38c.11-.38,.13-6.72,.03-7.28h-1.04c-.02-.15-.05-.25-.05-.35,.01-.79,0-1.58,.1-2.38,.02-.18,.04-.36,.04-.54,0-.09,0-.17,0-.26,0-.08,0-.15,0-.23v-.04c0-.12-.03-.24-.04-.36,0-.05-.01-.1-.02-.15-.02-.14-.06-.28-.09-.41,0-.03-.01-.05-.02-.08-.04-.15-.09-.3-.15-.45v-.03c-.09-.22-.2-.43-.31-.64-.02-.03-.03-.06-.05-.09-.11-.2-.24-.39-.38-.58-.15-.19-.31-.38-.49-.55-.03-.03-.06-.06-.09-.08-.17-.17-.36-.32-.55-.47h-.01c-.07-.06-.15-.1-.22-.15-.07-.04-.13-.09-.2-.13h-.01l-.03-.02c-.13-.08-.27-.15-.41-.21-.03-.01-.05-.03-.07-.04-.13-.06-.27-.11-.4-.16-.04-.01-.07-.03-.11-.04-.13-.04-.27-.08-.41-.11-.04-.01-.08-.02-.13-.04-.18-.04-.36-.07-.55-.09-3.25-.38-6.52,2.38-5.86,6.29,.13,.77,.04,1.55,.04,2.37h-1.06c-.1,.39-.12,6.63-.03,7.24,.22,0,.44,.02,.67,.02,.23,0,.47,.02,.74,.03-.06,.1-.11,.19-.16,.26-.05,.08-.09,.15-.13,.21-1.38,2.13-3.05,4.01-4.86,5.78-1.28,1.25-2.62,2.42-4.02,3.52-.7,.55-1.41,1.09-2.13,1.61-.72,.52-1.45,1.03-2.2,1.53-.69,.46-1.39,.92-2.1,1.36-.7,.45-1.41,.88-2.13,1.31-1.43,.85-2.88,1.67-4.37,2.43-1.25,.64-2.52,1.24-3.78,1.86-.15,.07-.29,.15-.47,.24,.1,.17,.19,.32,.28,.45,1,1.52,1.99,3.04,2.99,4.56,.12,.18,.21,.36,.21,.59,0,2.25,0,4.5,0,6.74,0,.08-.01,.15-.02,.28-.5,.05-1,.02-1.49,.02-.52,0-1.04,0-1.56,0h-3s-.05,.05-.06,.06c-.01,.01-.03,.02-.03,.03,0,.18-.02,.37-.02,.55,0,2.97,0,5.93,0,8.9,0,.02,0,.04,.02,.07,.01,.03,.03,.06,.04,.11h4.3v4.9h-.66c-.64,0-1.28,0-1.93,0-.6,0-1.26-.45-1.49-1.02-.16-.38-.3-.76-.46-1.16h-3.3c-.13,.33-.27,.66-.4,1-.04,.1-.08,.19-.13,.27-.09,.17-.2,.32-.33,.44-.13,.12-.27,.22-.43,.3-.24,.11-.51,.17-.82,.17h-2.35c.37,1.98,.72,3.89,1.07,5.79-.03,.01-.06,.03-.09,.04-4.44-5.24-7.8-11.1-9.96-17.63-3.57-10.8-3.75-21.68-.45-32.57,6.51-21.48,26.21-37.35,49.8-38.03,.61-.02,1.21-.02,1.82-.02,.26,0,.52,0,.78,.01,.3,0,.59,.02,.89,.03,.77,.03,1.55,.07,2.31,.13h.02c.58,.05,1.15,.1,1.72,.17,.06,0,.13,.01,.19,.02,.55,.06,1.11,.14,1.66,.22,.07,0,.13,.02,.2,.03,.56,.08,1.12,.18,1.67,.28,.03,0,.05,0,.08,.02,.66,.12,1.32,.26,1.98,.41,.16,.04,.33,.07,.49,.11,.65,.15,1.29,.31,1.93,.49h.02c.66,.19,1.32,.38,1.97,.59,.13,.04,.26,.08,.39,.12,1.31,.43,2.61,.9,3.88,1.43,.06,.02,.12,.05,.18,.07,1.31,.54,2.59,1.14,3.84,1.78h0c1.92,.99,3.78,2.09,5.57,3.3l.04,.02c.56,.38,1.11,.76,1.66,1.16,.62,.45,1.22,.92,1.82,1.4h0c.3,.24,.6,.49,.89,.74,.09,.07,.18,.15,.27,.22,.08,.07,.17,.13,.25,.2,.14,.12,.27,.24,.41,.36,.24,.21,.47,.42,.7,.63,.2,.19,.41,.37,.61,.56,.38,.35,.75,.71,1.12,1.08,.19,.18,.37,.37,.55,.56,.25,.25,.49,.5,.73,.76,.11,.12,.23,.24,.34,.36,.06,.06,.12,.13,.17,.2,.36,.4,.72,.8,1.08,1.21,.14,.16,.28,.33,.42,.5,.26,.31,.52,.62,.77,.94,.09,.11,.17,.21,.26,.31,.05,.07,.1,.14,.15,.2,.35,.45,.7,.9,1.03,1.36h0c.09,.13,.18,.26,.28,.39h0c.27,.38,.54,.76,.8,1.15,.06,.09,.13,.18,.19,.27,.05,.07,.09,.14,.13,.21,.33,.5,.65,1,.97,1.51,.05,.08,.1,.17,.15,.26,.27,.45,.54,.91,.8,1.37,.06,.1,.12,.21,.17,.31,.03,.05,.06,.1,.09,.16h0c.3,.54,.59,1.08,.87,1.63h0s.03,.06,.04,.09l.02,.04c.27,.53,.53,1.06,.78,1.6,.09,.18,.17,.37,.25,.55,.19,.42,.38,.85,.56,1.28,.08,.18,.15,.36,.23,.54,.24,.6,.48,1.2,.71,1.81,.09,.24,.17,.48,.25,.72m-50.3,98.74c-44.86,0-81.23-36.37-81.23-81.23,0-15.43,4.31-29.86,11.78-42.15l1.13,.67c-7.42,12.12-11.71,26.37-11.71,41.62,0,44.07,35.73,79.8,79.79,79.8s79.79-35.73,79.79-79.8c0-15.06-4.17-29.14-11.42-41.15l1.47-.87c7.37,12.23,11.62,26.56,11.62,41.88,0,44.86-36.37,81.23-81.23,81.23"/><rect class="cls-6" x="24.22" y="143.14" width="6.86" height="6.86"/><rect class="cls-6" x="185.11" y="143.14" width="6.86" height="6.86"/><g><path class="cls-6" d="M43.65,159.3c-.91,.97-1.02,1.4,.2,4.07l.9,1.91c1.33,2.86,.38,4.36-1.48,6.35l-.25,.26c-2.95,3.15-5.64,3.03-9.17-.27l-.55-.52c-1.1-1.03-2.15-2.55-2.82-3.79l2.37-2.53c.3,.74,1.38,2.32,2.72,3.58l.53,.49c1.74,1.63,2.77,1.68,3.94,.42l.19-.2c.95-1.01,1.16-1.64,.02-4.03l-.87-1.85c-1.47-3.11-.62-4.46,1.42-6.64l.29-.31c2.6-2.78,5.27-2.67,8.46,.32l.48,.45c1.19,1.11,2.28,2.46,2.84,3.32l-2.43,2.6c-.28-.59-1.28-1.86-2.53-3.03l-.44-.41c-1.63-1.52-2.59-1.51-3.58-.46l-.25,.26Z"/><path class="cls-6" d="M57.25,182.98l-5.05-3.07-3.31,3.35-3.63-2.21,15.92-15.03,4.3,2.62-6.03,21.05-3.63-2.21,1.43-4.5Zm-2.51-5.62l3.61,2.19,2.77-8.62-6.38,6.43Z"/><path class="cls-6" d="M74.32,173.33l3.32,1.09,2.88,14.22,3.94-11.98,3.84,1.26-6.6,20.06-3.35-1.1-2.87-14.25-3.95,12.01-3.81-1.25,6.6-20.06Z"/><path class="cls-6" d="M120.17,179.39l3.94-.76,3.32,17.3,7.52-1.45,.66,3.44-11.46,2.2-3.98-20.73Z"/><path class="cls-6" d="M149.34,170.32l5.35,12.74c1.92,4.56,1.28,7.71-2.98,9.5l-1.89,.79c-4.23,1.78-6.9,.02-8.81-4.54l-5.36-12.74,3.7-1.56,5.21,12.4c1.17,2.78,2.55,3.74,4.42,2.95l.83-.35c1.89-.8,2.18-2.45,1.01-5.23l-5.21-12.4,3.73-1.57Z"/><path class="cls-6" d="M154.61,166.98l3.36-2.19,11.52,17.69-3.36,2.19-11.52-17.69Z"/><path class="cls-6" d="M169.68,162.97c.89,.98,1.31,1.13,4.07,.14l1.98-.73c2.96-1.09,4.38-.01,6.2,2l.24,.27c2.89,3.2,2.54,5.87-1.04,9.11l-.56,.51c-1.12,1.01-2.72,1.93-4.01,2.49l-2.33-2.57c.76-.24,2.43-1.18,3.79-2.41l.54-.49c1.77-1.6,1.9-2.62,.75-3.89l-.18-.2c-.93-1.03-1.54-1.29-4.02-.35l-1.92,.71c-3.22,1.2-4.5,.24-6.5-1.97l-.28-.31c-2.55-2.82-2.22-5.47,1.02-8.41l.49-.44c1.21-1.09,2.65-2.07,3.55-2.56l2.39,2.64c-.61,.23-1.96,1.12-3.23,2.27l-.45,.4c-1.66,1.5-1.73,2.45-.75,3.53l.24,.27Z"/></g></g></g></svg>